<svg width="58" height="43" viewBox="0 0 58 43" fill="none" xmlns="http://www.w3.org/2000/svg">
<path d="M21.77 7.96C21.7988 7.34787 21.7031 6.73627 21.4887 6.1622C21.2742 5.58813 20.9456 5.06354 20.5226 4.62016C20.0995 4.17678 19.591 3.82384 19.0276 3.5827C18.4642 3.34156 17.8578 3.21722 17.245 3.21722C16.6322 3.21722 16.0258 3.34156 15.4624 3.5827C14.899 3.82384 14.3905 4.17678 13.9674 4.62016C13.5444 5.06354 13.2158 5.58813 13.0013 6.1622C12.7869 6.73627 12.6912 7.34787 12.72 7.96V9.69H13.9V7.96C13.9 7.07418 14.2519 6.22464 14.8783 5.59826C15.5046 4.97189 16.3542 4.62 17.24 4.62C18.1258 4.62 18.9754 4.97189 19.6017 5.59826C20.2281 6.22464 20.58 7.07418 20.58 7.96V11.3H18.82V20.65C18.8226 21.5102 19.1662 22.3343 19.7754 22.9416C20.3846 23.549 21.2098 23.89 22.07 23.89H28.17C29.0285 23.8874 29.8511 23.5452 30.4581 22.9381C31.0652 22.3311 31.4074 21.5085 31.41 20.65V11.29H21.77V7.96ZM30.23 20.66C30.23 21.2063 30.013 21.7303 29.6266 22.1166C29.2403 22.503 28.7163 22.72 28.17 22.72H22.07C21.5237 22.72 20.9997 22.503 20.6134 22.1166C20.227 21.7303 20.01 21.2063 20.01 20.66V12.49H30.21L30.23 20.66ZM25.07 21.53C25.4102 21.53 25.7427 21.4291 26.0256 21.2401C26.3084 21.0511 26.5289 20.7825 26.6591 20.4682C26.7893 20.1539 26.8233 19.8081 26.757 19.4744C26.6906 19.1408 26.5268 18.8343 26.2862 18.5938C26.0457 18.3532 25.7392 18.1894 25.4056 18.1231C25.0719 18.0567 24.7261 18.0907 24.4118 18.2209C24.0975 18.3511 23.8289 18.5716 23.6399 18.8544C23.4509 19.1373 23.35 19.4698 23.35 19.81C23.3526 20.2654 23.5347 20.7013 23.8567 21.0233C24.1787 21.3453 24.6146 21.5274 25.07 21.53ZM25.07 19.27C25.1768 19.27 25.2812 19.3017 25.37 19.361C25.4588 19.4203 25.528 19.5047 25.5689 19.6034C25.6098 19.702 25.6205 19.8106 25.5996 19.9153C25.5788 20.0201 25.5274 20.1163 25.4518 20.1918C25.3763 20.2674 25.2801 20.3188 25.1753 20.3396C25.0706 20.3605 24.962 20.3498 24.8633 20.3089C24.7647 20.268 24.6803 20.1988 24.621 20.11C24.5617 20.0212 24.53 19.9168 24.53 19.81C24.53 19.6668 24.5869 19.5294 24.6882 19.4282C24.7894 19.3269 24.9268 19.27 25.07 19.27ZM47.7 18.24V2.57C47.7 1.88839 47.4292 1.2347 46.9473 0.752736C46.4653 0.270768 45.8116 0 45.13 0H6.87C6.18839 0 5.5347 0.270768 5.05274 0.752736C4.57077 1.2347 4.3 1.88839 4.3 2.57V24.15C4.3 24.8316 4.57077 25.4853 5.05274 25.9673C5.5347 26.4492 6.18839 26.72 6.87 26.72H34.14C33.9788 27.2574 33.8552 27.8054 33.77 28.36H3.41176e-08V31.98C-9.92976e-05 32.5327 0.216705 33.0635 0.603796 33.458C0.990888 33.8526 1.51735 34.0795 2.07 34.09H34.24C34.9181 36.1441 36.131 37.9806 37.754 39.4106C39.377 40.8406 41.3516 41.8126 43.4748 42.2267C45.5979 42.6407 47.793 42.4818 49.8344 41.7664C51.8759 41.051 53.6899 39.8048 55.0901 38.156C56.4903 36.5071 57.4261 34.5152 57.8014 32.3848C58.1767 30.2545 57.9778 28.0626 57.2253 26.0346C56.4727 24.0066 55.1937 22.2155 53.5196 20.8456C51.8455 19.4757 49.8368 18.5764 47.7 18.24ZM6.87 25.53C6.68878 25.53 6.50933 25.4943 6.3419 25.425C6.17447 25.3556 6.02234 25.254 5.89419 25.1258C5.76605 24.9977 5.6644 24.8455 5.59505 24.6781C5.52569 24.5107 5.49 24.3312 5.49 24.15V2.57C5.49 2.38793 5.52602 2.20766 5.59599 2.03958C5.66597 1.87149 5.76852 1.71892 5.89772 1.59064C6.02693 1.46236 6.18024 1.36092 6.34883 1.29216C6.51741 1.2234 6.69794 1.18868 6.88 1.19H45.13C45.496 1.19 45.847 1.33539 46.1058 1.59419C46.3646 1.85299 46.51 2.204 46.51 2.57V18.12H45.81C43.4136 18.1227 41.071 18.8306 39.0741 20.1553C37.0772 21.4801 35.5142 23.3632 34.58 25.57L6.87 25.53ZM2.07 32.89C1.82335 32.89 1.5868 32.792 1.41239 32.6176C1.23798 32.4432 1.14 32.2066 1.14 31.96V29.54H33.67V30.27C33.6583 31.1498 33.7421 32.0283 33.92 32.89H2.07ZM45.77 41.26C43.5944 41.26 41.4677 40.6149 39.6587 39.4062C37.8498 38.1975 36.4399 36.4795 35.6073 34.4695C34.7748 32.4595 34.5569 30.2478 34.9814 28.114C35.4058 25.9802 36.4534 24.0202 37.9918 22.4818C39.5302 20.9434 41.4902 19.8958 43.624 19.4714C45.7578 19.0469 47.9695 19.2648 49.9795 20.0973C51.9895 20.9299 53.7075 22.3398 54.9162 24.1487C56.1249 25.9577 56.77 28.0844 56.77 30.26C56.7753 33.1739 55.6242 35.9709 53.5694 38.037C51.5146 40.1031 48.7239 41.2694 45.81 41.28L45.77 41.26ZM50.42 23.63L43.74 30.31L41.29 27.89L37.99 31.19L43.57 36.89L53.65 26.89L50.42 23.63ZM39.65 31.17L41.29 29.53L43.74 31.98L50.42 25.3L51.97 26.89L43.57 35.23L39.65 31.17Z" fill="white"/>
</svg>
