<svg width="18" height="20" viewBox="0 0 18 20" fill="none" xmlns="http://www.w3.org/2000/svg">
<path d="M13.6875 7.8125H12.7109C12.3873 7.8125 12.125 7.55016 12.125 7.22656V5.46875H6.26562V6.64062H6.65625C7.7332 6.64062 8.60938 7.5168 8.60938 8.59375C8.60938 9.6707 7.7332 10.5469 6.65625 10.5469H6.26562V11.7188H12.125V9.96094C12.125 9.63734 12.3873 9.375 12.7109 9.375H13.6875C14.1183 9.375 14.4688 9.02453 14.4688 8.59375C14.4688 8.16297 14.1183 7.8125 13.6875 7.8125Z" fill="#3EBE42"/>
<path d="M15.5245 2.45984C13.9383 0.873594 11.8293 0 9.58595 0C7.34263 0 5.23361 0.873594 3.64736 2.45984C2.06111 4.04609 1.18751 6.15512 1.18751 8.39844V9.46406L0.0529438 12.4896C-0.0145562 12.6695 0.0105219 12.8711 0.119975 13.0291C0.229467 13.187 0.409389 13.2812 0.601577 13.2812H1.96876V14.6484C1.96876 16.0485 3.10779 17.1875 4.50783 17.1875H5.09376V19.4141C5.09376 19.7377 5.35611 20 5.6797 20H13.4922C13.8158 20 14.0781 19.7377 14.0781 19.4141V15.372C16.5309 13.8466 17.9844 11.2643 17.9844 8.39844C17.9844 6.15512 17.1108 4.04609 15.5245 2.45984ZM13.6875 10.5469H13.2969V12.3047C13.2969 12.6283 13.0345 12.8906 12.711 12.8906H5.6797C5.35611 12.8906 5.09376 12.6283 5.09376 12.3047V9.96094C5.09376 9.63734 5.35611 9.375 5.6797 9.375H6.65626C7.08705 9.375 7.43751 9.02453 7.43751 8.59375C7.43751 8.16297 7.08705 7.8125 6.65626 7.8125H5.6797C5.35611 7.8125 5.09376 7.55016 5.09376 7.22656V4.88281C5.09376 4.55922 5.35611 4.29688 5.6797 4.29688H12.711C13.0345 4.29688 13.2969 4.55922 13.2969 4.88281V6.64062H13.6875C14.7645 6.64062 15.6406 7.5168 15.6406 8.59375C15.6406 9.6707 14.7645 10.5469 13.6875 10.5469Z" fill="#3EBE42"/>
</svg>
