<svg width="63" height="63" viewBox="0 0 63 63" fill="none" xmlns="http://www.w3.org/2000/svg">
<mask id="mask0_1682_567" style="mask-type:luminance" maskUnits="userSpaceOnUse" x="0" y="0" width="63" height="63">
<path d="M63 0H0V63H63V0Z" fill="white"/>
</mask>
<g mask="url(#mask0_1682_567)">
<path d="M62.6936 62.6877H1.25977V21.7377H62.6936V62.6877Z" fill="#00A4D8"/>
<path d="M31.9773 31.9765C30.8523 31.9726 29.7576 32.3408 28.8636 33.0238C27.9696 33.7067 27.3265 34.6661 27.0343 35.7525C26.7422 36.8389 26.8175 37.9914 27.2484 39.0306C27.6793 40.0698 28.4417 40.9374 29.4169 41.4983V49.8937C29.4318 50.5627 29.708 51.1993 30.1864 51.6673C30.6648 52.1352 31.3074 52.3972 31.9766 52.3972C32.6458 52.3972 33.2884 52.1352 33.7669 51.6673C34.2453 51.1993 34.5215 50.5627 34.5363 49.8937V41.4983C35.5114 40.9375 36.2738 40.07 36.7048 39.0309C37.1357 37.9918 37.2111 36.8395 36.9191 35.7531C36.6271 34.6668 35.9842 33.7074 35.0905 33.0244C34.1967 32.3413 33.1022 31.9729 31.9773 31.9765Z" fill="#006A39"/>
<path d="M31.9771 1.26025C27.2248 1.26025 22.6672 3.14809 19.3068 6.50845C15.9464 9.86881 14.0586 14.4264 14.0586 19.1787V21.739H19.178V19.1787C19.2114 15.8064 20.5746 12.5835 22.9711 10.2106C25.3677 7.83772 28.6039 6.50662 31.9764 6.50662C35.349 6.50662 38.5852 7.83772 40.9817 10.2106C43.3783 12.5835 44.7414 15.8064 44.7749 19.1787V21.739H49.8943V19.1787C49.8943 14.4267 48.0066 9.86922 44.6465 6.5089C41.2864 3.14857 36.7291 1.26059 31.9771 1.26025Z" fill="#3EBE42"/>
<path d="M19.178 21.7377H14.0586V31.9764H19.178V21.7377ZM49.8943 21.7377H44.7749V31.9764H49.8943V21.7377Z" fill="#006A39"/>
</g>
</svg>
