<svg width="32" height="30" viewBox="0 0 32 30" fill="none" xmlns="http://www.w3.org/2000/svg">
<path d="M3.99881 2.67371C3.86806 2.35989 3.49706 2.20533 3.18256 2.33621C2.86812 2.46708 2.714 2.83739 2.84444 3.15246C2.9745 3.46671 3.34694 3.62021 3.66069 3.48996C3.97625 3.35896 4.12825 2.98933 3.99881 2.67371Z" fill="white"/>
<path d="M6.13706 2.67432C6.00799 2.35919 5.63456 2.20613 5.32081 2.33619C5.00612 2.46663 4.85262 2.83688 4.98268 3.15182C5.11256 3.46638 5.48449 3.62088 5.79899 3.48994C6.11256 3.35938 6.26818 2.98882 6.13706 2.67432Z" fill="white"/>
<path d="M8.40028 2.67437C8.27116 2.35912 7.89772 2.20668 7.58403 2.33625C7.26909 2.46631 7.11597 2.83725 7.24591 3.15187C7.37584 3.46643 7.74772 3.62087 8.06222 3.49C8.37578 3.3595 8.53141 2.98881 8.40028 2.67437Z" fill="white"/>
<path d="M31.8184 26.3092L29.0523 23.5432L31.5364 22.7736C31.7942 22.6938 31.9754 22.4489 31.9764 22.179C31.9774 21.9092 31.7982 21.6629 31.541 21.581L28.2826 20.5438V15.9918C28.2826 15.6465 28.0027 15.3667 27.6575 15.3667C27.3124 15.3667 27.0325 15.6465 27.0325 15.9918V20.1458L21.8006 18.4803C21.3258 18.3294 20.8646 18.7925 21.0153 19.2655L22.7589 24.7422H2.99095C2.03097 24.7422 1.25006 23.9612 1.25006 23.0013V5.82659H27.0325V10.4881C27.0325 10.8333 27.3124 11.1131 27.6575 11.1131C28.0027 11.1131 28.2826 10.8333 28.2826 10.4881L28.2831 2.99064C28.2831 1.34163 26.9416 0 25.2925 0H2.99095C1.34188 0 0.000312515 1.34163 0.000312515 2.99064L0 23.0013C0 24.6505 1.34175 25.9923 2.99095 25.9923H23.1569L24.1163 29.0059C24.1979 29.2623 24.4429 29.4414 24.712 29.4413C24.9812 29.4413 25.2262 29.2619 25.3076 29.0052L26.11 26.4746L28.8815 29.2461C29.1257 29.4902 29.5213 29.4902 29.7655 29.2461L31.8185 27.1931C32.0605 26.9605 32.0605 26.542 31.8184 26.3092ZM1.25037 2.99064C1.25037 2.03091 2.03116 1.25006 2.99095 1.25006H25.2926C26.2523 1.25006 27.0331 2.03091 27.0331 2.99064V4.5764H1.25037V2.99064ZM29.3235 27.9202L26.267 24.8637C25.9412 24.5379 25.3681 24.6788 25.2292 25.1167L24.7106 26.7521L22.5733 20.0383L29.2654 22.1685L27.6929 22.6556C27.2521 22.7923 27.1089 23.3676 27.4359 23.6947L30.4925 26.7513L29.3235 27.9202Z" fill="white"/>
<path d="M7.3256 7.12501C7.15491 7.10214 6.98509 7.09058 6.82102 7.09058C4.73723 7.09058 3.0419 8.78591 3.0419 10.8696C3.0419 12.9534 4.73723 14.6487 6.82102 14.6487C8.61097 14.6487 10.1683 13.3769 10.5239 11.6247C10.5926 11.2865 10.3741 10.9566 10.0357 10.8878C9.69746 10.8193 9.36757 11.0376 9.29888 11.376C9.06093 12.548 8.01888 13.3986 6.82095 13.3986C5.42639 13.3986 4.2919 12.2641 4.2919 10.8696C4.2919 9.47513 5.42639 8.34063 6.82095 8.34063C6.92977 8.34063 7.04384 8.34851 7.15991 8.36401C7.50167 8.40989 7.8165 8.16956 7.86225 7.82736C7.908 7.48522 7.66781 7.17077 7.3256 7.12501Z" fill="white"/>
<path d="M6.82102 23.4067C8.9048 23.4067 10.6001 21.7113 10.6001 19.6276C10.6001 17.5438 8.9048 15.8485 6.82102 15.8485C4.73723 15.8485 3.0419 17.5438 3.0419 19.6276C3.0419 21.7113 4.73723 23.4067 6.82102 23.4067ZM6.82102 17.0985C8.21552 17.0985 9.35001 18.233 9.35001 19.6276C9.35001 21.0221 8.21552 22.1566 6.82102 22.1566C5.42645 22.1566 4.29196 21.0221 4.29196 19.6276C4.29196 18.2331 5.42645 17.0985 6.82102 17.0985Z" fill="white"/>
<path d="M22.9185 8.66138H12.7218C12.3766 8.66138 12.0967 8.9412 12.0967 9.28641C12.0967 9.63161 12.3766 9.91144 12.7218 9.91144H22.9185C23.2636 9.91144 23.5435 9.63161 23.5435 9.28641C23.5435 8.9412 23.2636 8.66138 22.9185 8.66138Z" fill="white"/>
<path d="M23.5435 12.2892C23.5435 11.944 23.2636 11.6642 22.9185 11.6642H12.7218C12.3766 11.6642 12.0967 11.944 12.0967 12.2892C12.0967 12.6344 12.3766 12.9142 12.7218 12.9142H22.9185C23.2636 12.9142 23.5435 12.6344 23.5435 12.2892Z" fill="white"/>
<path d="M12.7218 18.7914H18.4769C18.8221 18.7914 19.1019 18.5116 19.1019 18.1664C19.1019 17.8212 18.8221 17.5414 18.4769 17.5414H12.7218C12.3766 17.5414 12.0967 17.8212 12.0967 18.1664C12.0967 18.5116 12.3766 18.7914 12.7218 18.7914Z" fill="white"/>
<path d="M12.7218 21.7942H19.1025C19.4476 21.7942 19.7275 21.5144 19.7275 21.1692C19.7275 20.824 19.4476 20.5442 19.1025 20.5442H12.7218C12.3766 20.5442 12.0967 20.824 12.0967 21.1692C12.0967 21.5144 12.3766 21.7942 12.7218 21.7942Z" fill="white"/>
<path d="M6.34719 10.0604C6.10305 9.81628 5.70741 9.81628 5.46321 10.0604C5.21913 10.3044 5.21913 10.7002 5.46321 10.9443L6.42125 11.9024C6.66539 12.1465 7.06103 12.1465 7.30523 11.9024L10.3418 8.8658C10.5859 8.62173 10.5859 8.22596 10.3418 7.98188C10.0978 7.73781 9.70216 7.73781 9.45783 7.98188L6.86321 10.5765L6.34719 10.0604Z" fill="white"/>
<path d="M28.1769 12.8881C28.0315 12.6656 27.7458 12.5624 27.4911 12.6334C27.2388 12.7037 27.0548 12.928 27.0346 13.1891C26.9897 13.7689 27.7277 14.0823 28.1183 13.6571C28.3107 13.4475 28.3346 13.1245 28.1769 12.8881Z" fill="white"/>
</svg>
