<svg width="32" height="32" viewBox="0 0 32 32" fill="none" xmlns="http://www.w3.org/2000/svg">
<path d="M5.90419 28.4097C6.0361 28.517 6.19487 28.5693 6.35261 28.5693C6.55908 28.5693 6.7639 28.4798 6.90434 28.3072C7.1522 28.0027 7.10631 27.555 6.80189 27.3071C4.70168 25.5973 3.15178 23.3828 2.26846 20.9077C4.94243 21.4489 7.69137 21.8286 10.4882 22.0436C10.6184 23.3274 10.7907 24.5615 11.0029 25.7226C11.0735 26.1088 11.4437 26.3644 11.8299 26.2941C12.2162 26.2235 12.472 25.8532 12.4015 25.4671C12.2092 24.4146 12.0506 23.2992 11.9275 22.1396C13.0845 22.2049 14.2493 22.2423 15.4195 22.2515C15.4214 22.2515 15.4233 22.2515 15.4252 22.2515C15.8153 22.2515 16.1329 21.9369 16.136 21.5463C16.1391 21.1536 15.8233 20.8328 15.4308 20.8298C14.2118 20.8201 12.9991 20.7794 11.7952 20.7077C11.6749 19.1851 11.613 17.6023 11.613 15.9974C11.613 14.6695 11.6548 13.3661 11.7351 12.107C13.1358 12.2009 14.5575 12.2479 15.9977 12.2479C17.4308 12.2479 18.8534 12.2002 20.2589 12.1054C20.3252 13.1337 20.3655 14.1903 20.3781 15.2637C20.3827 15.6535 20.7 15.9663 21.0888 15.9663C21.0915 15.9663 21.0944 15.9663 21.0972 15.9663C21.4898 15.9617 21.8043 15.6398 21.7997 15.2472C21.7869 14.1427 21.7448 13.0544 21.6756 11.9934C23.2567 11.8497 24.8131 11.6456 26.3355 11.3817C26.7223 11.3146 26.9817 10.9467 26.9146 10.5598C26.8475 10.173 26.4795 9.91346 26.0927 9.98076C24.6139 10.2371 23.1019 10.4357 21.5654 10.5757C21.2623 7.2225 20.6819 4.21393 19.8895 1.94421C22.8624 2.7615 25.516 4.51219 27.4768 7.01413C27.719 7.32321 28.1658 7.37732 28.4748 7.13522C28.7838 6.89304 28.8381 6.44621 28.5959 6.13721C25.539 2.23694 20.9472 0 15.9974 0C15.031 0 14.0837 0.0862549 13.1641 0.251261C13.1428 0.254183 13.1216 0.257975 13.1008 0.262793C7.84382 1.22834 3.47705 4.77206 1.36586 9.53029C1.3439 9.56963 1.32534 9.61157 1.31088 9.65573C0.467767 11.601 0 13.7459 0 15.9974C0 20.831 2.15203 25.3551 5.90419 28.4097ZM13.7582 1.5935C14.4884 1.48047 15.2361 1.42178 15.9974 1.42178C16.7544 1.42178 17.5023 1.47921 18.2358 1.59161C19.1508 3.80374 19.8189 7.02092 20.1494 10.6877C18.7802 10.7798 17.3942 10.826 15.9975 10.826C14.5938 10.826 13.2078 10.7803 11.8434 10.6893C12.1711 7.02448 12.8362 3.82033 13.7582 1.5935ZM12.1027 1.95013C11.3064 4.22688 10.7287 7.22574 10.4278 10.5779C7.86633 10.3453 5.38516 9.9498 3.00526 9.39388C4.84323 5.79274 8.13584 3.05138 12.1027 1.95013ZM1.42178 15.9974C1.42178 14.1354 1.77296 12.3532 2.41229 10.7147C4.94433 11.3206 7.5879 11.7485 10.3186 11.9956C10.2346 13.2931 10.1911 14.6337 10.1911 15.9974C10.1911 17.5646 10.2488 19.1126 10.3614 20.6075C7.44564 20.3732 4.58533 19.9562 1.81143 19.36C1.55456 18.2706 1.42178 17.1436 1.42178 15.9974ZM26.3088 1.62281C27.48 1.35851 29.0558 1.22352 29.9137 2.08133C30.9164 3.08401 30.7658 5.33935 29.5007 8.26917C28.2042 11.2711 25.8538 14.7528 22.849 18.1315C22.3094 17.7355 21.644 17.5014 20.9249 17.5014C19.1281 17.5014 17.6663 18.9632 17.6663 20.76C17.6663 22.5568 19.1281 24.0187 20.9249 24.0187C22.7218 24.0187 24.1836 22.5568 24.1836 20.76C24.1836 20.1998 24.0414 19.672 23.7913 19.211C26.9519 15.6795 29.4338 12.0101 30.8059 8.83283C32.3588 5.23698 32.3979 2.55463 30.9191 1.0759C30.1931 0.349759 28.7494 -0.385382 25.996 0.235858C25.613 0.322271 25.3726 0.702835 25.459 1.08577C25.5454 1.4687 25.9259 1.70938 26.3088 1.62281ZM20.9249 22.5969C19.912 22.5969 19.088 21.7729 19.088 20.76C19.088 19.7472 19.912 18.9231 20.9249 18.9231C21.9377 18.9231 22.7617 19.7472 22.7617 20.76C22.7617 21.7729 21.9377 22.5969 20.9249 22.5969ZM17.598 25.18C14.2497 27.952 10.8299 30.0743 7.96854 31.156C6.48776 31.7158 5.17719 31.9953 4.06393 31.9953C2.80162 31.9953 1.79295 31.6361 1.0759 30.919C0.353155 30.1963 -0.380406 28.7605 0.229302 26.0252C0.314767 25.642 0.694778 25.4006 1.07787 25.486C1.46112 25.5714 1.70251 25.9513 1.61712 26.3345C1.35812 27.4965 1.22842 29.0607 2.08133 29.9137C2.99277 30.8252 4.90507 30.7941 7.46578 29.826C10.1843 28.7984 13.4607 26.7594 16.6913 24.0848C16.9937 23.8345 17.4419 23.8766 17.6923 24.179C17.9427 24.4815 17.9005 24.9296 17.598 25.18ZM31.675 12.7998C31.8874 13.8467 31.9951 14.9226 31.9951 15.9974C31.9951 17.4183 31.8088 18.7968 31.4596 20.1092C31.4545 20.1331 31.4481 20.1566 31.4407 20.1798C29.8443 26.0674 24.9619 30.6183 18.8931 31.7325C18.8729 31.737 18.8525 31.7408 18.832 31.7436C17.9119 31.9088 16.9646 31.995 15.9976 31.995C14.8329 31.995 13.6701 31.869 12.5414 31.6205C12.158 31.5361 11.9156 31.1568 12 30.7734C12.0844 30.3899 12.4639 30.1475 12.8472 30.232C13.8757 30.4585 14.9356 30.5732 15.9977 30.5732C16.759 30.5732 17.5065 30.5146 18.2366 30.4016C18.7171 29.2363 19.1455 27.742 19.4827 26.0498C19.5595 25.6648 19.9338 25.4149 20.3188 25.4916C20.7039 25.5683 20.9538 25.9426 20.877 26.3277C20.5984 27.7258 20.2688 28.9702 19.8927 30.045C24.4607 28.7768 28.1335 25.3352 29.7221 20.9087C28.6212 21.1313 27.5026 21.3275 26.3829 21.4945C25.9943 21.5523 25.6329 21.2846 25.575 20.8962C25.5171 20.5079 25.7849 20.1461 26.1732 20.0882C27.5214 19.8872 28.8677 19.6427 30.1819 19.3605C30.4379 18.2805 30.5734 17.1548 30.5734 15.9976C30.5734 15.0173 30.4753 14.0366 30.2818 13.0825C30.2037 12.6978 30.4524 12.3226 30.8371 12.2446C31.2216 12.1664 31.597 12.4149 31.675 12.7998Z" fill="white"/>
</svg>
