<svg width="62" height="62" viewBox="0 0 62 62" fill="none" xmlns="http://www.w3.org/2000/svg">
<g clip-path="url(#clip0_1682_515)">
<mask id="mask0_1682_515" style="mask-type:luminance" maskUnits="userSpaceOnUse" x="0" y="0" width="62" height="62">
<path d="M62 0H0V62H62V0Z" fill="white"/>
</mask>
<g mask="url(#mask0_1682_515)">
<path d="M45.4942 34.1522C42.7278 34.1393 40.0034 34.8295 37.5768 36.158C35.1502 37.4865 33.1008 39.4097 31.6211 41.7472C33.2887 44.3444 34.1682 47.3692 34.1532 50.4557V62.0001H62.0011V50.4805C61.9742 46.1273 60.2208 41.9627 57.1258 38.9012C54.0309 35.8397 49.8475 34.1317 45.4942 34.1522Z" fill="#3EBE42"/>
<path d="M45.5451 1.24002C42.7718 1.22795 40.0406 1.91808 37.6059 3.24609C35.1713 4.57411 33.1124 6.4968 31.6211 8.83502C33.3061 11.4833 34.2011 14.5572 34.2011 17.6961C34.2011 20.835 33.3061 23.9088 31.6211 26.5571C33.1583 28.9627 35.2949 30.927 37.821 32.257C40.347 33.587 43.1757 34.237 46.0289 34.1431C48.8822 34.0492 51.6619 33.2146 54.0951 31.7214C56.5282 30.2282 58.531 28.1277 59.9068 25.6262C61.2826 23.1248 61.9839 20.3085 61.9419 17.454C61.8999 14.5995 61.1161 11.805 59.6674 9.34512C58.2187 6.88521 56.1549 4.8445 53.6789 3.42347C51.2029 2.00244 48.3998 1.24998 45.5451 1.24002Z" fill="#3EBE42"/>
<path d="M17.6454 34.1522C15.4946 34.1422 13.3631 34.5572 11.3732 35.3734C9.38322 36.1896 7.57412 37.3908 6.04976 38.9081C4.5254 40.4255 3.31581 42.229 2.49044 44.2151C1.66508 46.2013 1.24021 48.3309 1.24023 50.4817V62.0013H29.0882V50.4817C29.0782 47.3878 29.9571 44.3561 31.6202 41.7472C30.1231 39.4085 28.0593 37.486 25.6206 36.1582C23.1818 34.8305 20.447 34.1404 17.6702 34.1522" fill="#00A4D8"/>
<path d="M31.62 41.7471C29.9616 44.3485 29.083 47.3705 29.0879 50.4556V62H34.1508V50.4804C34.171 47.3856 33.2918 44.3516 31.62 41.7471Z" fill="#006A39"/>
<path d="M17.6955 1.24002C14.8407 1.24998 12.0376 2.00244 9.56164 3.42347C7.08563 4.8445 5.0219 6.88521 3.57319 9.34512C2.12448 11.805 1.34063 14.5995 1.29865 17.454C1.25668 20.3085 1.95802 23.1248 3.33377 25.6262C4.70952 28.1277 6.71235 30.2282 9.1455 31.7214C11.5786 33.2146 14.3584 34.0492 17.2117 34.1431C20.0649 34.237 22.8935 33.587 25.4196 32.257C27.9456 30.927 30.0822 28.9627 31.6195 26.5571C29.9345 23.9088 29.0395 20.835 29.0395 17.6961C29.0395 14.5572 29.9345 11.4833 31.6195 8.83502C30.1282 6.4968 28.0693 4.57411 25.6347 3.24609C23.2 1.91808 20.4688 1.22795 17.6955 1.24002Z" fill="#00A4D8"/>
<path d="M31.621 8.83508C29.936 11.4834 29.041 14.5572 29.041 17.6961C29.041 20.835 29.936 23.9089 31.621 26.5572C33.306 23.9089 34.2009 20.835 34.2009 17.6961C34.2009 14.5572 33.306 11.4834 31.621 8.83508Z" fill="#006A39"/>
</g>
</g>
<defs>
<clipPath id="clip0_1682_515">
<rect width="62" height="62" fill="white"/>
</clipPath>
</defs>
</svg>
