<svg width="32" height="27" viewBox="0 0 32 27" fill="none" xmlns="http://www.w3.org/2000/svg">
<path d="M30.7814 5.93181L17.7963 0.366659C16.6547 -0.12257 15.3446 -0.122187 14.2016 0.367616L1.21937 5.93149C0.467264 6.25375 0 6.96225 0 7.78044C0 8.59818 0.466945 9.30629 1.2186 9.62842L2.75321 10.2862C2.75161 10.302 2.75078 10.3181 2.75078 10.3343V17.5964C2.1576 17.7967 1.72916 18.3581 1.72916 19.0181C1.72916 19.4007 1.87333 19.7501 2.1099 20.0155C1.84824 20.272 1.6745 20.6197 1.63862 21.0138L1.27096 25.0582C1.24587 25.3345 1.33877 25.6104 1.52579 25.8152C1.71281 26.02 1.9792 26.1375 2.25657 26.1375H4.2027C4.48007 26.1375 4.74645 26.02 4.93347 25.8152C5.12056 25.6104 5.2134 25.3345 5.1883 25.0582L4.82065 21.0138C4.78483 20.6198 4.61102 20.2721 4.34936 20.0155C4.58593 19.7502 4.73011 19.4007 4.73011 19.0181C4.73011 18.3582 4.30167 17.7968 3.70849 17.5964V10.6956L6.32882 11.8186C6.32722 11.8344 6.32639 11.8505 6.32639 11.8667V15.523C6.32639 17.049 7.37125 18.4607 9.2686 19.4981C11.0744 20.4855 13.465 21.0293 15.9999 21.0293C18.5347 21.0293 20.9253 20.4855 22.7311 19.4981C24.6284 18.4607 25.6733 17.049 25.6733 15.523V11.8667C25.6733 11.8505 25.6725 11.8344 25.6709 11.8187L30.7806 9.62881C31.5327 9.30649 31.9999 8.59793 31.9999 7.7798C32 6.96206 31.5331 6.25394 30.7814 5.93181ZM4.22626 25.1693C4.21681 25.1797 4.20653 25.1797 4.2027 25.1797H2.25657C2.25268 25.1797 2.24246 25.1797 2.23301 25.1693C2.2235 25.1589 2.22445 25.1488 2.22477 25.1449L2.59243 21.1005C2.62263 20.7688 2.89655 20.5186 3.22967 20.5186C3.56271 20.5186 3.83664 20.7688 3.86684 21.1005L4.23449 25.1449C4.23488 25.1488 4.23577 25.1589 4.22626 25.1693ZM3.22967 19.5608C2.93039 19.5608 2.68693 19.3174 2.68693 19.0181C2.68693 18.7188 2.93039 18.4753 3.22967 18.4753C3.52894 18.4753 3.7724 18.7188 3.7724 19.0181C3.7724 19.3174 3.52894 19.5608 3.22967 19.5608ZM24.7156 13.4798C24.7156 14.7181 23.6964 15.9272 21.9194 16.7969C21.6818 16.9132 21.5835 17.2 21.6998 17.4375C21.7829 17.6074 21.9532 17.706 22.1303 17.706C22.201 17.706 22.2727 17.6903 22.3405 17.6571C23.3262 17.1747 24.1159 16.587 24.6789 15.9336C24.4994 16.9434 23.6608 17.8983 22.2718 18.6578C20.6044 19.5696 18.3771 20.0716 16 20.0716C13.6229 20.0716 11.3956 19.5696 9.7282 18.6578C8.34422 17.9011 7.50649 16.9503 7.32286 15.9445C7.80691 16.5025 8.46005 17.0128 9.26866 17.4549C11.0745 18.4423 13.4651 18.9862 15.9999 18.9862C16.7091 18.9862 17.4163 18.943 18.1021 18.8579C18.3646 18.8254 18.551 18.5863 18.5184 18.3238C18.4859 18.0613 18.2471 17.8748 17.9842 17.9075C17.3374 17.9877 16.6698 18.0284 15.9999 18.0284C13.6229 18.0284 11.3956 17.5263 9.72814 16.6146C8.15216 15.7529 7.28423 14.6396 7.28423 13.4798V12.2281L14.2037 15.1936C14.7741 15.4381 15.3866 15.5603 15.9994 15.5603C16.6128 15.5603 17.2266 15.4378 17.7984 15.1927L24.7156 12.2282V13.4798ZM30.4033 8.74849L17.421 14.3123C16.5179 14.6994 15.4827 14.6997 14.581 14.3133L4.65911 10.061L13.7502 8.47987C14.1591 8.9638 14.9924 9.28069 15.9999 9.28069C17.4378 9.28069 18.5221 8.6356 18.5221 7.78018C18.5221 6.92477 17.4378 6.27968 15.9999 6.27968C14.694 6.27968 13.68 6.81181 13.5048 7.55032L3.14762 9.35156C3.11722 9.35686 3.08817 9.3651 3.06033 9.37564L1.59596 8.74798C1.19632 8.57686 0.95777 8.21507 0.95777 7.78044C0.95777 7.34536 1.19664 6.98319 1.59667 6.81175L14.5789 1.24787C15.0309 1.05421 15.5159 0.957347 16.0007 0.957347C16.4847 0.957347 16.9686 1.05389 17.419 1.24691L30.4041 6.81207C30.8037 6.98332 31.0422 7.3451 31.0422 7.77974C31.0422 8.21495 30.8034 8.57705 30.4033 8.74849ZM14.4356 7.78025C14.4356 7.64073 14.9735 7.23751 15.9999 7.23751C17.0264 7.23751 17.5643 7.64073 17.5643 7.78025C17.5643 7.91976 17.0264 8.32298 15.9999 8.32298C14.9735 8.32298 14.4356 7.9197 14.4356 7.78025Z" fill="white"/>
<path d="M19.5752 18.5919C19.6109 18.5919 19.6471 18.5879 19.6834 18.5795C20.0448 18.496 20.4008 18.3991 20.7416 18.2912C20.9938 18.2115 21.1335 17.9424 21.0538 17.6903C20.974 17.4381 20.705 17.2982 20.4528 17.378C20.1361 17.4782 19.8047 17.5684 19.4678 17.6463C19.2101 17.7058 19.0495 17.9629 19.109 18.2206C19.1602 18.4421 19.3573 18.5919 19.5752 18.5919Z" fill="white"/>
</svg>
