<svg width="20" height="20" viewBox="0 0 20 20" fill="none" xmlns="http://www.w3.org/2000/svg">
<path d="M17.054 10.9033L17.0179 10.8696C19.4189 7.30523 14.7972 3.35323 11.6466 6.32798C10.2684 7.70629 10.2684 9.94096 11.6467 11.3193C12.8827 12.5553 14.807 12.6821 16.1852 11.7013L16.2292 11.7424L19.1337 14.6468L19.9655 13.815L17.054 10.9033Z" fill="#FF4955"/>
<path d="M0.137939 18.2354C0.137939 19.21 0.927979 20.0001 1.90265 20.0001H16.6085V18.8236H15.4321V17.6472H16.6085V16.4707H1.90265C0.928018 16.4707 0.137939 17.2608 0.137939 18.2354Z" fill="#FF4955"/>
<path d="M10.8148 12.1511C8.97996 10.3163 8.97996 7.33082 10.8148 5.49596C12.3842 3.92655 14.7955 3.6998 16.6085 4.81529V0H3.6673V15.2941H16.6085V12.8318C14.7822 13.9555 12.3737 13.71 10.8148 12.1511ZM8.37318 5.88235H5.432V4.70588H8.37318V5.88235ZM8.37318 3.52941H5.432V2.35294H8.37318V3.52941Z" fill="#FF4955"/>
<path d="M2.49088 15.2942V8.23535H0.137939V15.884C0.629822 15.5139 1.241 15.2942 1.90265 15.2942H2.49088Z" fill="#FF4955"/>
<path d="M2.49088 0.059082C1.15002 0.332376 0.137939 1.52073 0.137939 2.94108V4.70579H2.49088V0.059082Z" fill="#FF4955"/>
<path d="M0.137939 5.88232H2.49088V7.05879H0.137939V5.88232Z" fill="#FF4955"/>
</svg>
