<svg width="62" height="62" viewBox="0 0 62 62" fill="none" xmlns="http://www.w3.org/2000/svg">
<mask id="mask0_1682_531" style="mask-type:luminance" maskUnits="userSpaceOnUse" x="0" y="0" width="62" height="62">
<path d="M62 0H0V62H62V0Z" fill="white"/>
</mask>
<g mask="url(#mask0_1682_531)">
<path d="M46.9824 62.6585C51.1362 62.6585 55.1199 61.008 58.0571 58.0709C60.9942 55.1337 62.6441 51.15 62.6441 46.9963C62.6441 42.8425 60.9942 38.8588 58.0571 35.9216C55.1199 32.9845 51.1362 31.3346 46.9824 31.3346V62.6585Z" fill="#00A4D8"/>
<path d="M15.6618 31.3322C11.508 31.3322 7.52434 32.982 4.58718 35.9192C1.65002 38.8563 0 42.84 0 46.9938C0 51.1476 1.65002 55.1313 4.58718 58.0684C7.52434 61.0056 11.508 62.6561 15.6618 62.6561V31.3322Z" fill="#00A4D8"/>
<path d="M31.3203 0.013672C27.8927 0.013672 24.4986 0.688436 21.3319 2.00022C18.1652 3.31199 15.2877 5.2351 12.8641 7.65893C10.4405 10.0828 8.51812 12.9602 7.20664 16.127C5.89516 19.2938 5.22038 22.6878 5.2207 26.1154V35.3234C6.74152 33.9588 8.51505 32.9056 10.4411 32.2234V26.1118C10.4198 23.3561 10.9442 20.6232 11.9841 18.0712C13.0239 15.5191 14.5587 13.1982 16.4998 11.2421C18.4409 9.28599 20.75 7.73331 23.2939 6.67383C25.8379 5.61435 28.5664 5.06934 31.3222 5.06934C34.0779 5.06934 36.8064 5.61435 39.3504 6.67383C41.8943 7.73331 44.2032 9.28599 46.1443 11.2421C48.0854 13.1982 49.6201 15.5191 50.6599 18.0712C51.6998 20.6232 52.2242 23.3561 52.203 26.1118V32.2234C54.1283 32.9063 55.9013 33.9595 57.4221 35.3234V26.1154C57.4224 22.6876 56.7475 19.2934 55.4359 16.1264C54.1242 12.9594 52.2016 10.0816 49.7778 7.65771C47.3539 5.23386 44.4764 3.31124 41.3094 1.99961C38.1424 0.687977 34.7482 0.0133463 31.3203 0.013672Z" fill="#00AC41"/>
<path d="M52.2031 32.227V49.6058C52.8887 49.6059 53.5675 49.4709 54.2009 49.2086C54.8342 48.9463 55.4097 48.5618 55.8944 48.077C56.3791 47.5922 56.7635 47.0163 57.0257 46.3829C57.2878 45.7494 57.4226 45.071 57.4223 44.3854V35.3222C55.9015 33.9582 54.1285 32.905 52.2031 32.2222" fill="#006A39"/>
<path d="M10.4411 32.2271C8.51496 32.9091 6.74139 33.9623 5.2207 35.3271V49.6107H10.4411V32.2319" fill="#006A39"/>
<path d="M46.9831 54.6294C43.8114 56.4702 40.2096 57.4394 36.5424 57.4394C32.8753 57.4394 29.2732 56.4702 26.1016 54.6294" fill="#00AC41"/>
<path d="M46.9831 54.6294C43.8114 56.4702 40.2096 57.4394 36.5424 57.4394C32.8753 57.4394 29.2732 56.4702 26.1016 54.6294" stroke="#00AC41" stroke-width="2" stroke-miterlimit="10"/>
<path d="M54.8137 41.7765C54.7428 44.4155 53.9829 46.9903 52.6095 49.2449C51.2361 51.4996 49.2969 53.3559 46.9844 54.6294" fill="#006A39"/>
<path d="M54.8137 41.7765C54.7428 44.4155 53.9829 46.9903 52.6095 49.2449C51.2361 51.4996 49.2969 53.3559 46.9844 54.6294" stroke="#006A39" stroke-width="2" stroke-miterlimit="10"/>
<path d="M33.3696 57.4742C34.5398 54.8392 32.8185 51.5175 29.525 50.0549C26.2316 48.5924 22.6131 49.5429 21.443 52.1779C20.2728 54.8129 21.9941 58.1346 25.2875 59.5972C28.581 61.0597 32.1995 60.1092 33.3696 57.4742Z" fill="#00AC41"/>
</g>
</svg>
