<svg width="32" height="30" viewBox="0 0 32 30" fill="none" xmlns="http://www.w3.org/2000/svg">
<path d="M25.8164 13.2993C27.7239 12.0559 28.9875 9.9043 28.9875 7.4624C28.9875 3.62329 25.8643 0.5 22.0251 0.5C19.4553 0.5 17.2063 1.89966 16 3.97656C14.7937 1.89966 12.5449 0.5 9.9751 0.5C6.13599 0.5 3.01245 3.62329 3.01245 7.4624C3.01245 9.9043 4.27612 12.0559 6.18359 13.2993C2.55835 14.7947 0 18.3665 0 22.5251V26.0396C0 27.9409 1.54688 29.4875 3.448 29.4875H28.552C30.4534 29.4875 32 27.9409 32 26.0398V22.5251C32 18.3665 29.4417 14.7947 25.8164 13.2993ZM22.0251 2.375C24.8303 2.375 27.1125 4.65723 27.1125 7.4624C27.1125 10.2678 24.8303 12.55 22.0251 12.55C19.2197 12.55 16.9375 10.2678 16.9375 7.4624C16.9375 4.65723 19.2197 2.375 22.0251 2.375ZM15.9966 14.5781C15.3159 14.061 14.5674 13.6296 13.7666 13.2993C14.6824 12.7024 15.4497 11.896 16 10.9487C16.55 11.8955 17.3169 12.7014 18.2319 13.2983C17.4387 13.6245 16.6873 14.0537 15.9966 14.5781ZM4.88745 7.4624C4.88745 4.65723 7.16968 2.375 9.9751 2.375C12.7803 2.375 15.0625 4.65723 15.0625 7.4624C15.0625 10.2678 12.7803 12.55 9.9751 12.55C7.16968 12.55 4.88745 10.2678 4.88745 7.4624ZM15.4978 27.6125H3.448C2.58057 27.6125 1.875 26.907 1.875 26.0398V22.5251C1.875 18.0586 5.50879 14.425 9.9751 14.425C14.4414 14.425 18.0752 18.0588 18.0752 22.5251V26.0398C18.0752 26.907 17.3694 27.6125 16.5022 27.6125H15.4978ZM30.125 26.0398C30.125 26.907 29.4194 27.6125 28.552 27.6125H19.5688C19.812 27.1406 19.9502 26.6062 19.9502 26.0398V22.5251C19.9502 19.9719 18.9854 17.6399 17.4021 15.8738C18.7522 14.9343 20.3613 14.425 22.0251 14.425C26.4915 14.425 30.125 18.0586 30.125 22.5251V26.0398Z" fill="white"/>
</svg>
