<svg width="62" height="62" viewBox="0 0 62 62" fill="none" xmlns="http://www.w3.org/2000/svg">
<mask id="mask0_1682_549" style="mask-type:luminance" maskUnits="userSpaceOnUse" x="0" y="0" width="62" height="62">
<path d="M62 0H0V62H62V0Z" fill="white"/>
</mask>
<g mask="url(#mask0_1682_549)">
<path fill-rule="evenodd" clip-rule="evenodd" d="M58.0958 63.2911H4.9668C4.9668 52.8887 16.8634 44.3427 31.3466 44.3427C45.8298 44.3427 58.0958 52.5167 58.0958 63.2911Z" fill="#1E9CD8"/>
<path fill-rule="evenodd" clip-rule="evenodd" d="M31.7167 0.869328C37.0075 0.870064 42.1793 2.43962 46.578 5.37954C50.9768 8.31945 54.4051 12.4977 56.4293 17.3859C58.4536 22.2742 58.9829 27.6529 57.9504 32.8419C56.9178 38.031 54.3698 42.7973 50.6285 46.5383C46.8871 50.2793 42.1205 52.8269 36.9314 53.8589C31.7422 54.891 26.3636 54.3612 21.4755 52.3365C16.5875 50.3118 12.4096 46.8831 9.47005 42.4841C6.53054 38.085 4.96146 32.9131 4.96122 27.6223C4.91538 24.0962 5.57615 20.5965 6.90454 17.3298C8.23293 14.0632 10.2021 11.0956 12.6957 8.6021C15.1894 6.10863 18.1572 4.13979 21.424 2.8117C24.6908 1.48361 28.1905 0.82317 31.7167 0.869328Z" fill="#3EBE42"/>
<path d="M51.0381 27.6223C51.0381 27.6223 43.2335 38.7687 31.7176 38.7687C20.2018 38.7687 12.3984 27.6223 12.3984 27.6223C12.3984 27.6223 20.2018 16.476 31.7189 16.476C43.236 16.476 51.0381 27.6223 51.0381 27.6223Z" fill="white"/>
<path d="M39.8931 27.621C39.8931 26.0043 39.4137 24.4239 38.5155 23.0797C37.6173 21.7355 36.3407 20.6878 34.8471 20.0691C33.3535 19.4504 31.7099 19.2886 30.1243 19.604C28.5387 19.9194 27.0822 20.6979 25.9391 21.841C24.7959 22.9842 24.0174 24.4407 23.702 26.0263C23.3866 27.6119 23.5485 29.2555 24.1671 30.7491C24.7858 32.2427 25.8335 33.5193 27.1777 34.4175C28.522 35.3157 30.1023 35.7951 31.719 35.7951C32.8067 35.8491 33.8937 35.6746 34.9098 35.2829C35.926 34.8912 36.8489 34.291 37.619 33.5209C38.389 32.7509 38.9892 31.828 39.3809 30.8118C39.7726 29.7956 39.9471 28.7087 39.8931 27.621Z" fill="#1E9CD8"/>
<path d="M31.7227 22.7909C30.4467 22.812 29.2288 23.3282 28.3264 24.2306C27.424 25.133 26.9078 26.3509 26.8867 27.6269C26.9078 28.9029 27.424 30.1208 28.3264 31.0232C29.2288 31.9256 30.4467 32.4418 31.7227 32.4629C32.3349 32.4937 32.947 32.402 33.5233 32.1932C34.0995 31.9845 34.6283 31.6628 35.0787 31.2471C35.5291 30.8313 35.892 30.3299 36.1461 29.7721C36.4002 29.2144 36.5405 28.6115 36.5587 27.9989C36.5312 26.7962 36.1423 25.6296 35.4427 24.6509C35.2498 24.8633 34.9844 24.996 34.6987 25.0229C34.3126 24.997 33.9489 24.832 33.6753 24.5583C33.4016 24.2847 33.2366 23.921 33.2107 23.5349V23.1629C32.4667 23.1629 32.0947 22.7909 31.7227 22.7909Z" fill="#006A39"/>
<path d="M34.3177 22.0461C34.166 22.0241 34.0113 22.0377 33.8658 22.086C33.7203 22.1343 33.5881 22.2159 33.4798 22.3243C33.3714 22.4326 33.2898 22.5648 33.2415 22.7103C33.1933 22.8557 33.1796 23.0105 33.2017 23.1621C34.0263 23.525 34.7815 24.0285 35.4337 24.6501C35.575 24.5037 35.6818 24.3274 35.7461 24.1343C35.8105 23.9412 35.8308 23.7361 35.8057 23.5341C35.7798 23.148 35.6147 22.7844 35.3411 22.5107C35.0674 22.2371 34.7038 22.072 34.3177 22.0461Z" fill="#A3DCF5"/>
<path d="M33.2012 23.1633V23.5353C33.227 23.9215 33.3921 24.2851 33.6657 24.5588C33.9394 24.8324 34.303 24.9975 34.6892 25.0233C35.0612 25.0233 35.4332 25.0233 35.4332 24.6513C34.7811 24.0297 34.0258 23.5262 33.2012 23.1633Z" fill="#A1C8B6"/>
</g>
</svg>
