<svg width="16" height="20" viewBox="0 0 16 20" fill="none" xmlns="http://www.w3.org/2000/svg">
<path d="M13.0718 12.1875L14.9468 16.9531C15.064 17.2656 15.0249 17.6172 14.7905 17.8906C14.5952 18.0859 14.3608 18.2422 14.0874 18.2422C14.0093 18.2422 13.9311 18.2031 13.8921 18.2031L12.1343 17.8516L11.2749 19.4922C11.1187 19.8438 10.8061 20 10.4546 20C10.4155 20 10.4155 20 10.4155 20C10.0249 20 9.71243 19.7656 9.59523 19.4531L7.83743 15H7.21243L5.41555 19.4531C5.29837 19.7656 4.98587 20 4.59524 20C4.59524 20 4.59524 20 4.55618 20C4.20462 20 3.89212 19.8047 3.73587 19.4922L2.87649 17.8516L1.11868 18.2031C1.07962 18.2031 1.00149 18.2422 0.923368 18.2422C0.649928 18.2422 0.415553 18.0859 0.22024 17.8906C-0.0141339 17.6172 -0.0531968 17.2656 0.0639902 16.9531L1.97805 12.2266C1.62649 12.0312 1.27493 11.7188 1.00149 11.25C0.610868 10.5469 0.649928 9.8438 0.649928 9.41406C0.649928 9.375 0.649928 9.375 0.649928 9.375C0.649928 9.33594 0.649928 9.33594 0.649928 9.33594C0.415553 8.98438 0.0249281 8.35938 0.0249281 7.5C0.0249281 6.67969 0.415553 6.05469 0.649928 5.70312C0.649928 5.70312 0.649928 5.70312 0.649928 5.66406C0.649928 5.66406 0.649928 5.66406 0.649928 5.625C0.649928 5.19531 0.610868 4.49219 1.00149 3.75C1.43118 3.04688 2.05618 2.73438 2.44681 2.53906C2.48587 2.53906 2.48587 2.5 2.48587 2.5C2.48587 2.5 2.52493 2.5 2.52493 2.46094C2.72024 2.07031 3.03274 1.44531 3.73587 1.01562C4.16555 0.78125 4.67337 0.66406 5.22024 0.66406C5.33743 0.66406 5.49368 0.66406 5.61087 0.66406C5.64993 0.66406 5.64993 0.66406 5.64993 0.66406C5.68899 0.66406 5.68899 0.66406 5.68899 0.66406C6.04055 0.429688 6.66555 0 7.52493 0C8.34524 0 8.97024 0.429688 9.28274 0.66406H9.32181H9.36087C9.47805 0.66406 9.63433 0.66406 9.75153 0.66406C10.3374 0.66406 10.8061 0.78125 11.2358 1.01562C11.939 1.44531 12.2515 2.07031 12.4468 2.46094C12.4858 2.5 12.4858 2.5 12.4858 2.5C12.4858 2.5 12.4858 2.53906 12.5249 2.53906C12.9155 2.73438 13.5405 3.04688 13.9702 3.75C14.3608 4.49219 14.3218 5.19531 14.3218 5.625C14.3218 5.66406 14.3218 5.66406 14.3218 5.66406C14.3218 5.70312 14.3218 5.70312 14.3218 5.70312C14.5561 6.05469 14.9858 6.67969 14.9858 7.5C14.9858 8.35938 14.5952 8.98438 14.3608 9.375C14.3608 9.41406 14.3608 9.41406 14.3608 9.45312C14.3608 9.8828 14.3999 10.5859 14.0093 11.2891C13.7358 11.7188 13.3843 11.9922 13.0718 12.1875ZM12.3687 10.3125C12.603 9.9219 12.3687 9.33594 12.4858 8.86719C12.6421 8.39844 13.1499 8.00781 13.1499 7.5C13.1499 7.03125 12.6421 6.64062 12.5249 6.17188C12.3687 5.70312 12.603 5.11719 12.3687 4.6875C12.1343 4.29688 11.5093 4.17969 11.1577 3.86719C10.8452 3.51562 10.728 2.89062 10.3374 2.65625C10.1811 2.57812 9.98583 2.53906 9.79053 2.53906C9.59523 2.53906 9.39993 2.57812 9.20462 2.57812C9.08743 2.57812 8.97024 2.53906 8.85305 2.53906C8.38431 2.38281 7.99368 1.875 7.52493 1.875C7.01712 1.875 6.62649 2.38281 6.15774 2.5C6.04055 2.53906 5.92337 2.57812 5.80618 2.57812C5.61087 2.57812 5.41555 2.53906 5.22024 2.53906C5.02493 2.53906 4.82962 2.57812 4.71243 2.65625C4.28274 2.89062 4.16555 3.51562 3.85305 3.86719C3.50149 4.17969 2.87649 4.29688 2.64212 4.6875C2.40774 5.11719 2.64212 5.70312 2.52493 6.17188C2.36868 6.64062 1.89993 7.03125 1.89993 7.5C1.89993 8.00781 2.36868 8.39844 2.52493 8.86719C2.64212 9.33594 2.40774 9.9219 2.64212 10.3125C2.87649 10.7422 3.50149 10.8594 3.85305 11.1719C4.16555 11.5234 4.28274 12.1484 4.67337 12.3438C4.82962 12.4609 5.02493 12.4609 5.22024 12.4609C5.41555 12.4609 5.61087 12.4609 5.80618 12.4609C5.92337 12.4609 6.04055 12.5 6.15774 12.5C6.62649 12.6562 7.01712 13.125 7.52493 13.125C7.99368 13.125 8.38431 12.6172 8.85305 12.5C8.97024 12.5 9.08743 12.4609 9.20462 12.4609C9.39993 12.4609 9.59523 12.5 9.79053 12.5C9.98583 12.5 10.1811 12.4609 10.2983 12.3828C10.728 12.1484 10.8452 11.5234 11.1577 11.1719C11.5093 10.8594 12.1343 10.7422 12.3687 10.3125ZM7.52493 5C8.89212 5 10.0249 6.13281 10.0249 7.5C10.0249 8.90625 8.89212 10 7.52493 10C6.11868 10 5.02493 8.90625 5.02493 7.5C5.02493 6.13281 6.11868 5 7.52493 5Z" fill="#FE9204"/>
</svg>
