<svg width="43" height="44" viewBox="0 0 43 44" fill="none" xmlns="http://www.w3.org/2000/svg">
<path d="M20.0587 38.5361C19.6616 38.5316 19.2722 38.6452 18.9399 38.8625C18.6076 39.0798 18.3474 39.391 18.1923 39.7565C18.0372 40.122 17.9943 40.5254 18.069 40.9154C18.1437 41.3053 18.3326 41.6643 18.6117 41.9466C18.8909 42.229 19.2477 42.422 19.6368 42.5012C20.0258 42.5803 20.4297 42.542 20.7969 42.3911C21.1642 42.2402 21.4783 41.9836 21.6994 41.6537C21.9205 41.3239 22.0385 40.9358 22.0386 40.5388C22.0406 40.011 21.8334 39.5039 21.4623 39.1285C21.0912 38.7531 20.5865 38.5401 20.0587 38.5361ZM20.0587 41.6463C19.8369 41.6524 19.6184 41.5921 19.4311 41.4733C19.2438 41.3545 19.0961 41.1825 19.007 40.9794C18.918 40.7762 18.8915 40.5511 18.931 40.3329C18.9706 40.1146 19.0743 39.9131 19.229 39.7541C19.3837 39.5951 19.5823 39.4858 19.7994 39.4403C20.0165 39.3947 20.2422 39.415 20.4477 39.4984C20.6533 39.5818 20.8293 39.7247 20.9532 39.9086C21.0771 40.0926 21.1434 40.3094 21.1434 40.5312C21.1454 40.6757 21.119 40.8191 21.0655 40.9533C21.0121 41.0875 20.9328 41.2099 20.832 41.3135C20.7313 41.417 20.6111 41.4997 20.4784 41.5568C20.3458 41.6139 20.2031 41.6444 20.0587 41.6463ZM42.1031 9.99815C41.6647 10.0501 41.231 10.1364 40.806 10.2561L40.4267 10.3471V7.43414H39.9563C39.5179 7.48606 39.0842 7.5723 38.6592 7.69205L38.3861 7.76791V6.06868H37.9158C35.399 6.1326 32.942 6.8488 30.7851 8.14721H17.2519L16.114 7.10794L15.9016 6.92588L17.7374 0L5.09177 3.3226L0.843689 17.2654L7.27649 15.3462L8.84676 16.4613V41.9346C8.85559 42.2136 8.91931 42.4881 9.03429 42.7424C9.14926 42.9967 9.31324 43.2259 9.51685 43.4169C9.72045 43.6078 9.95969 43.7567 10.2209 43.8551C10.4821 43.9535 10.7601 43.9995 11.0391 43.9904H29.0631C29.342 43.9995 29.6201 43.9535 29.8813 43.8551C30.1425 43.7567 30.3817 43.6078 30.5853 43.4169C30.7889 43.2259 30.9529 42.9967 31.0679 42.7424C31.1828 42.4881 31.2466 42.2136 31.2554 41.9346V37.8382C34.8641 38.0285 38.457 38.4491 42.0121 39.0975L42.5431 39.1961V9.93747L42.1031 9.99815ZM38.8867 8.5796L39.5467 8.42788V35.6156C37.4985 35.3627 35.431 35.3042 33.3718 35.4411C34.8777 35.2141 36.4019 35.1328 37.9233 35.1984H38.4012V8.64787L38.8867 8.5796ZM12.5031 12.7822L13.2617 12.0236H27.599V37.0569H12.5031V12.7822ZM37.5365 34.2805C36.0193 34.235 31.4678 34.2805 28.5093 36.1769V11.7201C28.8127 11.136 31.0126 7.52517 37.5365 7.01691V34.2805ZM27.7735 11.174H14.3238C15.2531 10.4231 16.2176 9.71685 17.214 9.05751H29.5789C28.8602 9.65637 28.2473 10.3718 27.7659 11.174H27.7735ZM5.77449 4.06602L16.4478 1.24408L15.143 6.29626L13.7776 5.15838C13.5699 4.93887 13.2981 4.7906 13.0011 4.73475C12.7042 4.67889 12.3971 4.7183 12.1239 4.84736L11.4639 5.18872C8.5585 7.08519 7.04133 9.13337 5.25866 12.2587L5.21314 12.3346V12.4332C5.18675 12.7761 5.2417 13.1205 5.37352 13.4381C5.50534 13.7558 5.7103 14.0379 5.97173 14.2614L6.42688 14.6635L2.16363 15.9379L5.77449 4.06602ZM6.53308 13.6014C6.38781 13.4805 6.27004 13.33 6.18762 13.16C6.1052 12.9899 6.06005 12.8042 6.05517 12.6153C7.77716 9.58093 9.16537 7.72998 11.8735 5.97007L12.4956 5.65146C12.6079 5.61001 12.7303 5.60453 12.8458 5.6358C12.9613 5.66706 13.0643 5.73351 13.1404 5.82593L15.4616 7.81343L16.3112 8.57201C12.8673 10.8933 10.5612 13.1235 9.10468 15.6041L7.58751 14.5421L6.53308 13.6014ZM30.3678 41.9346C30.3483 42.26 30.201 42.5645 29.9581 42.7818C29.7151 42.9992 29.3962 43.1118 29.0706 43.0952H11.0467C10.7211 43.1118 10.4022 42.9992 10.1593 42.7818C9.91633 42.5645 9.76906 42.26 9.74948 41.9346V16.3551C10.278 15.4155 10.9062 14.5355 11.6232 13.7304V38.0051H28.4865V37.8913C29.1125 37.8459 29.7403 37.8282 30.3678 37.8382V41.9346ZM41.6859 38.1417C37.8736 37.4493 34.0136 37.0512 30.1403 36.9507C33.8573 35.6914 39.8501 36.5714 39.926 36.5714L40.4343 36.6473V11.2574L41.0184 11.1209L41.6783 10.9691L41.6859 38.1417Z" fill="white"/>
</svg>
