<svg width="36" height="44" viewBox="0 0 36 44" fill="none" xmlns="http://www.w3.org/2000/svg">
<path d="M31.762 28.1233C30.927 26.1255 29.6735 24.3298 28.0859 22.8574C26.4984 21.3849 24.6136 20.2699 22.5587 19.5873L21.6273 19.272L21.95 19.0667C22.0247 19.0235 22.0958 18.9745 22.1627 18.92L22.6393 18.5093L24.2013 17.138C24.2567 17.0872 24.3009 17.0254 24.3311 16.9566C24.3613 16.8878 24.3769 16.8135 24.3769 16.7383C24.3769 16.6632 24.3613 16.5889 24.3311 16.5201C24.3009 16.4513 24.2567 16.3895 24.2013 16.3387C24.1223 16.224 24.0032 16.1431 23.8674 16.1119C23.7317 16.0807 23.5892 16.1014 23.468 16.17C23.3464 16.2452 23.2374 16.3393 23.1453 16.4487L23.094 16.5C22.315 17.4186 21.3012 18.1085 20.1607 18.496C19.0203 18.8834 17.7961 18.954 16.6187 18.7C15.7058 18.5171 14.8395 18.1512 14.072 17.6244C13.3044 17.0976 12.6515 16.4207 12.1527 15.6347C11.6227 14.8017 11.2663 13.8702 11.105 12.8961C10.9437 11.922 10.9808 10.9254 11.214 9.96601C11.5905 8.42763 12.4752 7.06136 13.725 6.08846C14.9747 5.11555 16.5163 4.59297 18.1 4.60535H18.3933C20.0014 4.70911 21.5247 5.36369 22.7067 6.45892C23.8888 7.55415 24.6574 9.02315 24.8833 10.6187C25.008 11.4767 25.1033 11.5573 25.954 11.5573H27.6407V13.2733H18.32C18.0412 13.2452 17.7624 13.3267 17.5427 13.5007C17.4915 13.5555 17.4521 13.6202 17.4269 13.6909C17.4017 13.7615 17.3912 13.8365 17.396 13.9113C17.396 14.2047 17.506 14.52 18.3347 14.52H28.1027C28.3274 14.5409 28.5514 14.4724 28.726 14.3293C28.78 14.2702 28.8215 14.2007 28.848 14.1251C28.8744 14.0495 28.8853 13.9693 28.88 13.8893V12.98C28.908 12.0546 28.8712 11.1283 28.77 10.208C28.4425 7.53676 27.1329 5.08289 25.096 3.32388C23.0592 1.56488 20.4408 0.626563 17.7503 0.691514C15.0598 0.756466 12.4898 1.82004 10.5402 3.67528C8.59056 5.53053 7.4009 8.04473 7.20267 10.7287C7.18424 10.8427 7.18902 10.9593 7.21675 11.0715C7.24447 11.1836 7.29456 11.289 7.364 11.3813C7.45005 11.4529 7.54949 11.5066 7.6565 11.5393C7.76352 11.5721 7.87598 11.5832 7.98734 11.572H9.83534V11.66C9.81959 13.1948 10.2205 14.7052 10.9953 16.0302C11.7702 17.3552 12.8899 18.4452 14.2353 19.184L14.404 19.2867L13.8173 19.4847C11.6922 20.1243 9.73512 21.2268 8.08677 22.7128C6.43843 24.1989 5.13973 26.0316 4.284 28.0793V28.116C4.24088 28.2054 4.2065 28.2987 4.18134 28.3947C4.13136 28.5405 4.13927 28.6999 4.20345 28.8401C4.26763 28.9802 4.38317 29.0903 4.52621 29.1477C4.66926 29.2052 4.82889 29.2054 4.97214 29.1485C5.11539 29.0916 5.23132 28.9819 5.296 28.842C5.35424 28.7379 5.40568 28.6301 5.45 28.5193L5.52334 28.3727C6.32055 26.5662 7.49555 24.9514 8.96923 23.6371C10.4429 22.3228 12.1811 21.3395 14.0667 20.7533C15.8989 20.2007 17.8281 20.0456 19.7251 20.2985C21.6221 20.5515 23.4432 21.2066 25.0667 22.22C27.4872 23.7229 29.3889 25.9317 30.5153 28.5487C30.662 28.8567 30.8087 29.0473 30.9333 29.0913C31.0572 29.1214 31.1859 29.1266 31.3118 29.1064C31.4377 29.0863 31.5583 29.0413 31.6667 28.974C31.9013 28.7833 31.9307 28.512 31.762 28.1233ZM9.96 10.2667H8.49334V10.1933C8.77844 7.9195 9.88174 5.82727 11.5971 4.30763C13.3124 2.78799 15.5224 1.94494 17.814 1.93601H17.9607C20.285 1.91559 22.5367 2.74505 24.2923 4.2684C26.048 5.79175 27.1866 7.90403 27.494 10.208V10.3107H26.1153V10.2373C25.7782 8.3333 24.7887 6.60603 23.3167 5.35216C21.8447 4.09828 19.9821 3.39603 18.0487 3.36601H17.7333C15.8596 3.47168 14.0761 4.20585 12.671 5.44997C11.2659 6.69408 10.3211 8.3755 9.98934 10.2227L9.96 10.2667ZM11.588 39.9373H24.458C24.664 39.9234 24.8696 39.9711 25.0484 40.0742C25.2273 40.1774 25.3715 40.3314 25.4627 40.5167C25.9625 41.3656 26.6812 42.0647 27.5436 42.5408C28.4061 43.017 29.3805 43.2528 30.3653 43.2236C31.35 43.1943 32.3088 42.9012 33.1414 42.3747C33.9741 41.8482 34.65 41.1077 35.0987 40.2307C35.2034 40.0964 35.2654 39.9337 35.2767 39.7638C35.2879 39.5938 35.2479 39.4244 35.1618 39.2775C35.0757 39.1305 34.9474 39.0128 34.7937 38.9396C34.6399 38.8664 34.4677 38.841 34.2993 38.8667H33.8667C30.7867 38.94 30.5667 38.808 30.4933 38.764C30.1071 38.3878 29.7872 37.9489 29.5473 37.466L29.43 37.268C29.3503 37.1624 29.3072 37.0337 29.3072 36.9013C29.3072 36.769 29.3503 36.6403 29.43 36.5347C29.7013 36.1387 29.9433 35.728 30.1633 35.3393C30.232 35.2081 30.3388 35.1007 30.4697 35.0313C30.6006 34.9619 30.7495 34.9338 30.8967 34.9507H34.3287C34.4745 34.9524 34.6183 34.917 34.7466 34.8477C34.875 34.7784 34.9835 34.6776 35.062 34.5547C35.1334 34.4309 35.1711 34.2906 35.1711 34.1477C35.1711 34.0048 35.1334 33.8644 35.062 33.7407C34.6159 32.8537 33.939 32.1035 33.1024 31.5689C32.2658 31.0343 31.3006 30.7351 30.3084 30.7028C29.3161 30.6705 28.3335 30.9064 27.4639 31.3855C26.5944 31.8646 25.8701 32.5693 25.3673 33.4253C25.2861 33.5817 25.1609 33.7109 25.0071 33.7969C24.8534 33.8829 24.6777 33.922 24.502 33.9093H11.5587C11.357 33.9244 11.1553 33.8804 10.9781 33.7828C10.801 33.6851 10.6562 33.538 10.5613 33.3593C10.0819 32.4953 9.36332 31.7879 8.49177 31.3222C7.62022 30.8565 6.63278 30.6523 5.648 30.734C4.66128 30.7478 3.69782 31.0356 2.86517 31.5653C2.03252 32.0949 1.36346 32.8455 0.932669 33.7333C0.842448 33.8629 0.788716 34.0142 0.777104 34.1716C0.765493 34.329 0.796428 34.4867 0.866669 34.628C0.958799 34.76 1.08356 34.8659 1.22879 34.9353C1.37403 35.0047 1.53477 35.0352 1.69534 35.024H2.13534C5.23 34.9507 5.46467 35.0827 5.538 35.1267C5.97271 35.5781 6.32955 36.0985 6.594 36.6667C6.6142 36.7091 6.62468 36.7554 6.62468 36.8023C6.62468 36.8493 6.6142 36.8956 6.594 36.938L5.86067 38.61C5.79308 38.7427 5.68672 38.8516 5.55573 38.9223C5.42474 38.993 5.27532 39.0222 5.12734 39.006H1.82C1.65823 38.9935 1.496 39.0234 1.34936 39.0929C1.20273 39.1623 1.07678 39.2689 0.984002 39.402C0.917641 39.5509 0.891519 39.7146 0.908249 39.8767C0.924978 40.0389 0.983973 40.1938 1.07934 40.326C1.53191 41.2117 2.22102 41.9546 3.0702 42.4724C3.91938 42.9902 4.89542 43.2626 5.89 43.2593H6C6.98739 43.2756 7.96003 43.0184 8.81034 42.5163C9.66065 42.0141 10.3555 41.2865 10.818 40.414C10.8847 40.2672 10.9935 40.1436 11.1306 40.0587C11.2677 39.9739 11.4269 39.9316 11.588 39.9373ZM9.85 39.82C9.51401 40.4426 9.03626 40.9775 8.45535 41.3813C7.87444 41.7851 7.20667 42.0466 6.506 42.1447C5.81699 42.2418 5.11476 42.1741 4.45697 41.9472C3.79918 41.7203 3.20459 41.3406 2.722 40.8393C2.64867 40.766 2.59 40.6927 2.502 40.59L2.09134 40.1207L2.64867 40.0767H5.96334C6.04489 40.0854 6.12711 40.0681 6.19824 40.0273C6.26937 39.9865 6.32576 39.9242 6.35934 39.8493L7.98734 37.2313C8.08267 37.0847 8.08267 37.0113 7.98734 36.8427L6.374 34.2247C6.3372 34.148 6.27668 34.0852 6.2014 34.0455C6.12611 34.0059 6.04006 33.9916 5.956 34.0047H2.084L2.26 33.7333C2.69365 33.102 3.28288 32.5932 3.97071 32.2561C4.65854 31.9191 5.4217 31.7653 6.18637 31.8096C6.95105 31.8538 7.69137 32.0946 8.33575 32.5087C8.98012 32.9228 9.50674 33.4962 9.86467 34.1733C9.98632 34.441 10.1856 34.6659 10.4367 34.8189C10.6878 34.9719 10.979 35.0459 11.2727 35.0313H24.744C25.0473 35.0583 25.3514 34.9901 25.6142 34.8364C25.8771 34.6826 26.0855 34.4509 26.2107 34.1733C26.5751 33.5059 27.1023 32.9415 27.7434 32.5325C28.3844 32.1235 29.1185 31.8832 29.8773 31.834C30.615 31.7879 31.3523 31.9283 32.0213 32.2423C32.6903 32.5563 33.2695 33.0338 33.7053 33.6307L33.9253 33.924H30.1267C30.0304 33.9111 29.9325 33.9299 29.8478 33.9775C29.7632 34.0251 29.6963 34.099 29.6573 34.188C29.1412 35.0602 28.6057 35.9209 28.0513 36.7693C28.0024 36.8222 27.9752 36.8916 27.9752 36.9637C27.9752 37.0357 28.0024 37.1051 28.0513 37.158C28.6069 38.0226 29.1496 38.8954 29.6793 39.776C29.782 39.952 29.87 39.9813 30.0973 39.996H34.006L33.654 40.4727C33.5842 40.5749 33.5083 40.6729 33.4267 40.766C32.9566 41.2918 32.368 41.698 31.7096 41.9508C31.0513 42.2036 30.3421 42.2959 29.641 42.2199C28.9398 42.1439 28.2669 41.9019 27.678 41.5138C27.0891 41.1258 26.6011 40.603 26.2547 39.9887C26.091 39.6361 25.8252 39.3407 25.4919 39.1407C25.1585 38.9406 24.7728 38.8452 24.3847 38.8667H11.4267C11.0976 38.8493 10.7709 38.9308 10.4886 39.1007C10.2063 39.2706 9.98133 39.5211 9.84267 39.82H9.85Z" fill="white"/>
</svg>
