<svg width="132" height="22" viewBox="0 0 132 22" fill="none" xmlns="http://www.w3.org/2000/svg">
<path d="M23.0295 8.35399C22.95 8.10931 22.7386 7.93107 22.4841 7.89414L15.3346 6.85515L12.1372 0.376613C12.0234 0.145943 11.7885 0 11.5313 0C11.2741 0 11.0392 0.145943 10.9254 0.376613L7.72783 6.85511L0.578495 7.89414C0.324042 7.93107 0.112515 8.10931 0.0331024 8.3539C-0.0464003 8.59858 0.0199045 8.86709 0.204044 9.04654L5.37726 14.0894L4.1562 21.2101C4.11274 21.4636 4.21697 21.7198 4.42503 21.871C4.63308 22.0221 4.90884 22.0421 5.13659 21.9224L11.5313 18.5604L17.9257 21.9223C18.0246 21.9743 18.1325 21.9999 18.2401 21.9999C18.3802 21.9999 18.5196 21.9565 18.6373 21.871C18.8454 21.7198 18.9496 21.4635 18.9061 21.2101L17.6847 14.0894L22.8585 9.04654C23.0427 8.86704 23.109 8.59854 23.0295 8.35399Z" fill="#FED42D"/>
<path d="M23.0294 8.35399C22.95 8.10931 22.7385 7.93107 22.484 7.89414L15.3346 6.85515L12.1372 0.376613C12.0233 0.145943 11.7885 0 11.5313 0V18.5604L17.9258 21.9224C18.0246 21.9743 18.1326 22 18.2401 22C18.3802 22 18.5197 21.9565 18.6373 21.871C18.8454 21.7198 18.9496 21.4636 18.9062 21.2101L17.6847 14.0894L22.8584 9.04654C23.0426 8.86704 23.1089 8.59854 23.0294 8.35399Z" fill="#FCBF29"/>
<path d="M50.0295 8.35399C49.95 8.10931 49.7386 7.93107 49.4841 7.89414L42.3346 6.85515L39.1372 0.376613C39.0234 0.145943 38.7885 0 38.5313 0C38.2741 0 38.0392 0.145943 37.9254 0.376613L34.7278 6.85511L27.5785 7.89414C27.324 7.93107 27.1125 8.10931 27.0331 8.3539C26.9536 8.59858 27.0199 8.86709 27.204 9.04654L32.3773 14.0894L31.1562 21.2101C31.1127 21.4636 31.217 21.7198 31.425 21.871C31.6331 22.0221 31.9088 22.0421 32.1366 21.9224L38.5313 18.5604L44.9257 21.9223C45.0246 21.9743 45.1325 21.9999 45.2401 21.9999C45.3802 21.9999 45.5196 21.9565 45.6373 21.871C45.8454 21.7198 45.9496 21.4635 45.9061 21.2101L44.6847 14.0894L49.8585 9.04654C50.0427 8.86704 50.109 8.59854 50.0295 8.35399Z" fill="#FED42D"/>
<path d="M50.0294 8.35399C49.95 8.10931 49.7385 7.93107 49.484 7.89414L42.3346 6.85515L39.1372 0.376613C39.0233 0.145943 38.7885 0 38.5313 0V18.5604L44.9258 21.9224C45.0246 21.9743 45.1326 22 45.2401 22C45.3802 22 45.5197 21.9565 45.6373 21.871C45.8454 21.7198 45.9496 21.4636 45.9062 21.2101L44.6847 14.0894L49.8584 9.04654C50.0426 8.86704 50.1089 8.59854 50.0294 8.35399Z" fill="#FCBF29"/>
<path d="M77.0295 8.35399C76.95 8.10931 76.7386 7.93107 76.4841 7.89414L69.3346 6.85515L66.1372 0.376613C66.0234 0.145943 65.7885 0 65.5313 0C65.2741 0 65.0392 0.145943 64.9254 0.376613L61.7278 6.85511L54.5785 7.89414C54.324 7.93107 54.1125 8.10931 54.0331 8.3539C53.9536 8.59858 54.0199 8.86709 54.204 9.04654L59.3773 14.0894L58.1562 21.2101C58.1127 21.4636 58.217 21.7198 58.425 21.871C58.6331 22.0221 58.9088 22.0421 59.1366 21.9224L65.5313 18.5604L71.9257 21.9223C72.0246 21.9743 72.1325 21.9999 72.2401 21.9999C72.3802 21.9999 72.5196 21.9565 72.6373 21.871C72.8454 21.7198 72.9496 21.4635 72.9061 21.2101L71.6847 14.0894L76.8585 9.04654C77.0427 8.86704 77.109 8.59854 77.0295 8.35399Z" fill="#FED42D"/>
<path d="M77.0294 8.35399C76.95 8.10931 76.7385 7.93107 76.484 7.89414L69.3346 6.85515L66.1372 0.376613C66.0233 0.145943 65.7885 0 65.5313 0V18.5604L71.9258 21.9224C72.0246 21.9743 72.1326 22 72.2401 22C72.3802 22 72.5197 21.9565 72.6373 21.871C72.8454 21.7198 72.9496 21.4636 72.9062 21.2101L71.6847 14.0894L76.8584 9.04654C77.0426 8.86704 77.1089 8.59854 77.0294 8.35399Z" fill="#FCBF29"/>
<path d="M104.029 8.35399C103.95 8.10931 103.739 7.93107 103.484 7.89414L96.3346 6.85515L93.1372 0.376613C93.0234 0.145943 92.7885 0 92.5313 0C92.2741 0 92.0392 0.145943 91.9254 0.376613L88.7278 6.85511L81.5785 7.89414C81.324 7.93107 81.1125 8.10931 81.0331 8.3539C80.9536 8.59858 81.0199 8.86709 81.204 9.04654L86.3773 14.0894L85.1562 21.2101C85.1127 21.4636 85.217 21.7198 85.425 21.871C85.6331 22.0221 85.9088 22.0421 86.1366 21.9224L92.5313 18.5604L98.9257 21.9223C99.0246 21.9743 99.1325 21.9999 99.2401 21.9999C99.3802 21.9999 99.5196 21.9565 99.6373 21.871C99.8454 21.7198 99.9496 21.4635 99.9061 21.2101L98.6847 14.0894L103.858 9.04654C104.043 8.86704 104.109 8.59854 104.029 8.35399Z" fill="#FED42D"/>
<path d="M104.029 8.35399C103.95 8.10931 103.739 7.93107 103.484 7.89414L96.3346 6.85515L93.1372 0.376613C93.0233 0.145943 92.7885 0 92.5313 0V18.5604L98.9258 21.9224C99.0246 21.9743 99.1326 22 99.2401 22C99.3802 22 99.5197 21.9565 99.6373 21.871C99.8454 21.7198 99.9496 21.4636 99.9062 21.2101L98.6847 14.0894L103.858 9.04654C104.043 8.86704 104.109 8.59854 104.029 8.35399Z" fill="#FCBF29"/>
<path d="M131.029 8.35399C130.95 8.10931 130.739 7.93107 130.484 7.89414L123.335 6.85515L120.137 0.376613C120.023 0.145943 119.789 0 119.531 0C119.274 0 119.039 0.145943 118.925 0.376613L115.728 6.85511L108.578 7.89414C108.324 7.93107 108.113 8.10931 108.033 8.3539C107.954 8.59858 108.02 8.86709 108.204 9.04654L113.377 14.0894L112.156 21.2101C112.113 21.4636 112.217 21.7198 112.425 21.871C112.633 22.0221 112.909 22.0421 113.137 21.9224L119.531 18.5604L125.926 21.9223C126.025 21.9743 126.133 21.9999 126.24 21.9999C126.38 21.9999 126.52 21.9565 126.637 21.871C126.845 21.7198 126.95 21.4635 126.906 21.2101L125.685 14.0894L130.858 9.04654C131.043 8.86704 131.109 8.59854 131.029 8.35399Z" fill="#FED42D"/>
<path d="M131.029 8.35399C130.95 8.10931 130.739 7.93107 130.484 7.89414L123.335 6.85515L120.137 0.376613C120.023 0.145943 119.788 0 119.531 0V18.5604L125.926 21.9224C126.025 21.9743 126.133 22 126.24 22C126.38 22 126.52 21.9565 126.637 21.871C126.845 21.7198 126.95 21.4636 126.906 21.2101L125.685 14.0894L130.858 9.04654C131.043 8.86704 131.109 8.59854 131.029 8.35399Z" fill="#FCBF29"/>
</svg>
