<svg width="42" height="45" viewBox="0 0 42 45" fill="none" xmlns="http://www.w3.org/2000/svg">
<path d="M15.05 9.81821H23.9146V10.7426H15.05V9.81821ZM15.05 12.6216H23.9146V13.5459H15.05V12.6216ZM15.05 15.4249H23.9146V16.3493H15.05V15.4249ZM0.927092 41.875V2.47644C0.901883 2.14832 1.00707 1.82349 1.21983 1.57243C1.4326 1.32137 1.73578 1.16432 2.06359 1.13537H24.5208C24.8486 1.16432 25.1518 1.32137 25.3645 1.57243C25.5773 1.82349 25.6825 2.14832 25.6573 2.47644V12.9928H26.5816V2.44613C26.6063 1.87381 26.4034 1.31499 26.0172 0.891881C25.631 0.468772 25.093 0.215803 24.5208 0.188293H2.05601C1.48241 0.217691 0.94394 0.473613 0.558932 0.899822C0.173923 1.32603 -0.0261267 1.88766 0.00274149 2.46129V41.8598C-0.0261267 42.4335 0.173923 42.9951 0.558932 43.4213C0.94394 43.8475 1.48241 44.1034 2.05601 44.1328H21.5659V43.2085H2.05601C1.73097 43.1777 1.43089 43.0209 1.21993 42.7717C1.00897 42.5225 0.903867 42.2007 0.927092 41.875ZM10.1706 15.9856V10.591C10.1608 10.2714 10.0274 9.96804 9.79848 9.74477C9.56955 9.5215 9.26295 9.39573 8.94318 9.39392H3.56377C3.24395 9.3937 2.93652 9.51756 2.70618 9.73942C2.47584 9.96128 2.34054 10.2639 2.32877 10.5835V15.9629C2.33076 16.2878 2.46071 16.5988 2.69047 16.8286C2.92023 17.0583 3.23127 17.1883 3.55619 17.1903H8.93561C9.26054 17.1903 9.57239 17.0623 9.80357 16.8339C10.0347 16.6056 10.1666 16.2954 10.1706 15.9704V15.9856ZM3.24555 15.9856V10.591C3.24555 10.5086 3.27827 10.4296 3.33653 10.3714C3.39479 10.3131 3.4738 10.2804 3.55619 10.2804H8.93561C9.01799 10.2804 9.09701 10.3131 9.15526 10.3714C9.21352 10.4296 9.24625 10.5086 9.24625 10.591V15.9704C9.24625 16.0528 9.21352 16.1318 9.15526 16.1901C9.09701 16.2484 9.01799 16.2811 8.93561 16.2811H3.55619C3.4751 16.2811 3.39721 16.2494 3.33917 16.1928C3.28112 16.1362 3.24752 16.0591 3.24555 15.978V15.9856ZM10.1251 2.61282H16.3531V3.72659H10.1251V2.61282ZM13.1558 41.8447C13.6323 41.8447 14.0982 41.7034 14.4944 41.4386C14.8906 41.1739 15.1994 40.7976 15.3818 40.3573C15.5641 39.9171 15.6118 39.4326 15.5189 38.9653C15.4259 38.4979 15.1964 38.0686 14.8595 37.7316C14.5225 37.3947 14.0932 37.1652 13.6258 37.0722C13.1585 36.9793 12.674 37.027 12.2338 37.2093C11.7935 37.3917 11.4172 37.7005 11.1525 38.0967C10.8877 38.493 10.7464 38.9588 10.7464 39.4353C10.7484 40.0737 11.0029 40.6854 11.4543 41.1368C11.9057 41.5882 12.5174 41.8427 13.1558 41.8447ZM13.1558 37.9427C13.4555 37.9427 13.7485 38.0316 13.9977 38.1981C14.2469 38.3646 14.4411 38.6013 14.5558 38.8782C14.6705 39.155 14.7005 39.4597 14.642 39.7537C14.5835 40.0476 14.4392 40.3176 14.2273 40.5295C14.0154 40.7415 13.7454 40.8858 13.4514 40.9443C13.1575 41.0027 12.8528 40.9727 12.5759 40.858C12.299 40.7433 12.0624 40.5491 11.8958 40.2999C11.7293 40.0507 11.6405 39.7578 11.6405 39.458C11.6405 39.0562 11.8001 38.6707 12.0843 38.3865C12.3685 38.1024 12.7539 37.9427 13.1558 37.9427ZM18.9898 34.8666H20.1415V35.791H18.9898V34.8666ZM2.32119 28.0097H3.24555V30.3282H2.32119V28.0097ZM6.33682 19.1678H8.65527V20.0921H6.33682V19.1678ZM5.07152 34.8666H7.38997V35.791H5.07152V34.8666ZM14.3453 34.8666H16.6638V35.791H14.3453V34.8666ZM15.6106 19.1678H17.9291V20.0921H15.6106V19.1678ZM9.70085 34.8666H12.0193V35.791H9.70085V34.8666ZM2.32119 34.6241C2.32042 34.827 2.37546 35.0263 2.4803 35.2L3.23797 34.7226C3.22928 34.6904 3.22928 34.6564 3.23797 34.6241V32.6542H2.32119V34.6241ZM2.32119 23.3728H3.24555V25.6913H2.32119V23.3728ZM10.9737 19.1678H13.2922V20.0921H10.9737V19.1678ZM3.59407 20.0921H4.01836V19.1678H3.59407C3.43286 19.1617 3.27203 19.1875 3.12078 19.2436C2.96953 19.2997 2.83082 19.3851 2.7126 19.4949C2.59438 19.6047 2.49896 19.7367 2.4318 19.8834C2.36464 20.03 2.32706 20.1885 2.32119 20.3497V21.0544H3.24555V20.3497C3.24555 20.1982 3.39708 20.0921 3.59407 20.0921ZM20.2627 19.1678H21.4143V20.0921H20.2627V19.1678ZM38.9922 25.858C38.4429 25.8508 37.9079 26.0327 37.4768 26.3732C37.4765 25.9021 37.3376 25.4414 37.0774 25.0486C36.8173 24.6559 36.4473 24.3483 36.0137 24.1641C35.58 23.98 35.1018 23.9275 34.6385 24.0131C34.1752 24.0988 33.7474 24.3187 33.4082 24.6457C33.2653 24.3047 33.0457 24.0012 32.7664 23.759C32.487 23.5167 32.1555 23.3422 31.7977 23.2491C31.4399 23.156 31.0654 23.1467 30.7034 23.2221C30.3414 23.2974 30.0017 23.4553 29.7108 23.6835V18.001C29.7108 17.364 29.4577 16.7531 29.0073 16.3027C28.5569 15.8522 27.946 15.5992 27.309 15.5992C26.672 15.5992 26.0611 15.8522 25.6106 16.3027C25.1602 16.7531 24.9072 17.364 24.9072 18.001V30.0327H24.6344C24.1724 29.973 23.7031 30.0096 23.2558 30.1399C22.8086 30.2703 22.3932 30.4918 22.0356 30.7904C21.278 31.548 20.937 32.8361 20.937 34.9045C20.937 38.1624 23.8161 44.148 27.9378 44.148H34.1961C36.0965 44.146 37.9184 43.3902 39.2621 42.0465C40.6059 40.7027 41.3616 38.8808 41.3636 36.9805V28.2598C41.3617 27.6286 41.1122 27.0234 40.6688 26.5742C40.2253 26.1251 39.6233 25.8679 38.9922 25.858ZM40.5075 36.9653C40.5055 38.6205 39.8471 40.2073 38.6767 41.3777C37.5063 42.5481 35.9195 43.2065 34.2643 43.2085H27.9757C24.5208 43.2085 21.9144 37.6548 21.9144 34.8742C21.9144 33.1315 22.1947 31.9572 22.7478 31.4117C22.9789 31.2263 23.2448 31.0891 23.5298 31.0084C23.8148 30.9278 24.1132 30.9051 24.4071 30.9419H25.4451L25.8997 30.8964V18.0161C25.9728 17.6776 26.1596 17.3742 26.4291 17.1567C26.6987 16.9391 27.0346 16.8204 27.381 16.8204C27.7273 16.8204 28.0632 16.9391 28.3328 17.1567C28.6023 17.3742 28.7891 17.6776 28.8622 18.0161V30.0327H29.7865V25.5473C29.8596 25.2087 30.0464 24.9054 30.316 24.6879C30.5855 24.4703 30.9214 24.3516 31.2678 24.3516C31.6141 24.3516 31.9501 24.4703 32.2196 24.6879C32.4891 24.9054 32.6759 25.2087 32.749 25.5473V30.0933H33.6127V26.3505C33.6858 26.0119 33.8727 25.7085 34.1422 25.491C34.4117 25.2734 34.7476 25.1548 35.094 25.1548C35.4403 25.1548 35.7763 25.2734 36.0458 25.491C36.3153 25.7085 36.5021 26.0119 36.5752 26.3505V30.116H37.4996V28.2598C37.5726 27.9212 37.7595 27.6179 38.029 27.4003C38.2985 27.1827 38.6344 27.0641 38.9808 27.0641C39.3272 27.0641 39.6631 27.1827 39.9326 27.4003C40.2021 27.6179 40.389 27.9212 40.462 28.2598L40.5075 36.9653Z" fill="white"/>
</svg>
