<svg width="26" height="26" viewBox="0 0 26 26" fill="none" xmlns="http://www.w3.org/2000/svg">
<path d="M25.6538 23.9826L17.5956 15.9244C18.9118 14.2497 19.6978 12.1394 19.6978 9.84896C19.6978 4.41819 15.2796 0 9.84888 0C4.41819 0 0 4.41819 0 9.84888C0 15.2796 4.41819 19.6978 9.84888 19.6978C12.1392 19.6978 14.2496 18.9118 15.9243 17.5956L23.9826 25.6538C24.2132 25.8847 24.5157 26 24.8182 26C25.1206 26 25.4231 25.8847 25.6538 25.6538C26.1153 25.1923 26.1153 24.444 25.6538 23.9826ZM2.36364 9.84888C2.36364 5.7215 5.7215 2.36364 9.84888 2.36364C13.9763 2.36364 17.3342 5.7215 17.3342 9.84888C17.3342 13.9763 13.9763 17.3341 9.84888 17.3341C5.7215 17.3341 2.36364 13.9763 2.36364 9.84888Z" fill="#A0A7AA"/>
</svg>
