<svg width="56" height="45" viewBox="0 0 56 45" fill="none" xmlns="http://www.w3.org/2000/svg">
<path d="M42.5939 28.6535H45.9433C46.093 28.6535 46.2367 28.594 46.3425 28.4881C46.4484 28.3823 46.5079 28.2387 46.5079 28.0889V0.56664C46.5079 0.416896 46.4484 0.273286 46.3425 0.167401C46.2367 0.0615166 46.093 0.00203149 45.9433 0.00203149H0.860751C0.782683 -0.00460883 0.704088 0.00507161 0.629964 0.0304572C0.555841 0.0558428 0.487813 0.0963778 0.430206 0.149484C0.3726 0.202589 0.326677 0.267103 0.295359 0.338922C0.264041 0.41074 0.248013 0.48829 0.248295 0.56664V41.4481C0.250758 41.5971 0.311034 41.7393 0.416389 41.8446C0.521745 41.95 0.663928 42.0103 0.812903 42.0127H26.6509C26.7999 42.0103 26.9421 41.95 27.0474 41.8446C27.1528 41.7393 27.2131 41.5971 27.2155 41.4481V38.0987C27.2155 37.949 27.156 37.8054 27.0502 37.6995C26.9443 37.5936 26.8007 37.5341 26.6509 37.5341H5.87524C5.59606 37.5341 5.32831 37.4232 5.1309 37.2258C4.93348 37.0284 4.82258 36.7607 4.82258 36.4815V18.9403C4.82258 18.6612 4.93348 18.3934 5.1309 18.196C5.32831 17.9986 5.59606 17.8877 5.87524 17.8877H40.9671C41.2463 17.8877 41.514 17.9986 41.7114 18.196C41.9088 18.3934 42.0197 18.6612 42.0197 18.9403V28.0889C42.0197 28.1639 42.0346 28.2381 42.0636 28.3072C42.0926 28.3763 42.135 28.439 42.1885 28.4916C42.2419 28.5441 42.3053 28.5855 42.3749 28.6133C42.4445 28.6411 42.519 28.6548 42.5939 28.6535ZM4.21012 16.7202C4.06038 16.7202 3.91677 16.7797 3.81088 16.8856C3.705 16.9914 3.64551 17.135 3.64551 17.2848V38.1466C3.64798 38.2956 3.70825 38.4377 3.81361 38.5431C3.91896 38.6485 4.06115 38.7087 4.21012 38.7112H25.0528C25.332 38.7112 25.5997 38.8221 25.7971 39.0195C25.9945 39.2169 26.1054 39.4847 26.1054 39.7639C26.1054 40.043 25.9945 40.3108 25.7971 40.5082C25.5997 40.7056 25.332 40.8165 25.0528 40.8165H2.54501C2.26582 40.8165 1.99808 40.7056 1.80066 40.5082C1.60325 40.3108 1.49235 40.043 1.49235 39.7639V2.22219C1.49235 1.943 1.60325 1.67526 1.80066 1.47784C1.99808 1.28043 2.26582 1.16953 2.54501 1.16953H44.2686C44.5478 1.16953 44.8155 1.28043 45.013 1.47784C45.2104 1.67526 45.3213 1.943 45.3213 2.22219V26.4142C45.3213 26.6934 45.2104 26.9612 45.013 27.1586C44.8155 27.356 44.5478 27.4669 44.2686 27.4669C43.9894 27.4669 43.7217 27.356 43.5243 27.1586C43.3269 26.9612 43.216 26.6934 43.216 26.4142V17.2656C43.211 17.1176 43.148 16.9774 43.0405 16.8754C42.9331 16.7733 42.7899 16.7176 42.6418 16.7202H4.21012ZM39.9336 44.4721C39.7783 44.4662 39.6259 44.4283 39.4859 44.3608C39.346 44.2933 39.2214 44.1976 39.1201 44.0798L32.9477 37.8978L30.5553 35.5054C30.5058 35.4519 30.461 35.3943 30.4214 35.3331L30.1725 34.979L30.4214 34.5963L30.852 34.9599L30.4692 34.5388L30.6319 34.3474L33.0626 31.8593L39.857 38.6538L52.6612 25.8305L55.7617 28.9885L55.2833 29.4669L54.9962 29.7732L51.9243 32.8929L40.8235 43.9936C40.7126 44.128 40.5759 44.2388 40.4213 44.3193C40.2668 44.3999 40.0977 44.4486 39.924 44.4626L39.9336 44.4721ZM31.608 34.9599L33.742 37.1035L39.9144 43.2951L40.0101 43.1994L54.1923 29.0076L52.6325 27.4477L39.8379 40.2711L33.0434 33.4766L31.608 34.9599ZM39.101 7.64817H17.7224C17.3197 7.64566 16.9341 7.48455 16.6493 7.19974C16.3645 6.91493 16.2034 6.52937 16.2009 6.1266V4.75814C16.2034 4.35537 16.3645 3.96981 16.6493 3.685C16.9341 3.40019 17.3197 3.23908 17.7224 3.23657H39.101C39.5038 3.23908 39.8893 3.40019 40.1741 3.685C40.459 3.96981 40.6201 4.35537 40.6226 4.75814V6.09789C40.6226 6.50232 40.4626 6.89033 40.1775 7.1772C39.8924 7.46407 39.5054 7.6265 39.101 7.62903V7.64817ZM17.7224 4.37535C17.6184 4.37535 17.5186 4.41669 17.445 4.49027C17.3714 4.56385 17.3301 4.66365 17.3301 4.76771V6.10746C17.3301 6.21152 17.3714 6.31131 17.445 6.38489C17.5186 6.45848 17.6184 6.49981 17.7224 6.49981H39.101C39.2051 6.49981 39.3049 6.45848 39.3784 6.38489C39.452 6.31131 39.4934 6.21152 39.4934 6.10746V4.76771C39.4934 4.66365 39.452 4.56385 39.3784 4.49027C39.3049 4.41669 39.2051 4.37535 39.101 4.37535H17.7224ZM34.9286 14.567H17.7033C17.3005 14.5645 16.915 14.4034 16.6302 14.1186C16.3454 13.8338 16.1842 13.4482 16.1817 13.0454V11.6866C16.1842 11.2838 16.3454 10.8982 16.6302 10.6134C16.915 10.3286 17.3005 10.1675 17.7033 10.165H34.9286C35.3314 10.1675 35.717 10.3286 36.0018 10.6134C36.2866 10.8982 36.4477 11.2838 36.4502 11.6866V13.0263C36.4502 13.4307 36.2902 13.8187 36.0051 14.1056C35.7201 14.3925 35.3331 14.5549 34.9286 14.5574V14.567ZM17.7033 11.2942C17.5992 11.2942 17.4995 11.3355 17.4259 11.4091C17.3523 11.4827 17.311 11.5825 17.311 11.6866V13.0263C17.311 13.1304 17.3523 13.2302 17.4259 13.3037C17.4995 13.3773 17.5992 13.4187 17.7033 13.4187H34.9286C35.0327 13.4187 35.1325 13.3773 35.2061 13.3037C35.2797 13.2302 35.321 13.1304 35.321 13.0263V11.6866C35.321 11.5825 35.2797 11.4827 35.2061 11.4091C35.1325 11.3355 35.0327 11.2942 34.9286 11.2942H17.7033ZM8.86097 4.97824C7.99934 4.9756 7.15648 5.22979 6.43997 5.70834C5.72346 6.1869 5.16582 6.86812 4.83822 7.66504C4.51062 8.46195 4.42793 9.33842 4.60071 10.1825C4.77348 11.0267 5.19389 11.8002 5.80825 12.4043C6.20696 12.808 6.6825 13.1278 7.20681 13.3447C7.73111 13.5617 8.29356 13.6714 8.86097 13.6675C10.0145 13.6675 11.1208 13.2092 11.9365 12.3936C12.7521 11.5779 13.2104 10.4716 13.2104 9.31807C13.2104 8.16454 12.7521 7.05825 11.9365 6.24258C11.1208 5.42691 10.0145 4.96867 8.86097 4.96867V4.97824ZM8.86097 12.4808C8.02749 12.4783 7.22858 12.1475 6.63743 11.5599C6.04628 10.9723 5.71054 10.1754 5.70299 9.34199C5.71484 8.52053 6.04256 7.73517 6.61811 7.14892C7.19367 6.56267 7.97287 6.22056 8.79398 6.19358C9.63153 6.19358 10.4348 6.5263 11.027 7.11854C11.6192 7.71077 11.952 8.51401 11.952 9.35156C11.952 10.1891 11.6192 10.9924 11.027 11.5846C10.4348 12.1768 9.63153 12.5095 8.79398 12.5095L8.86097 12.4808Z" fill="white"/>
</svg>
