<svg width="273" height="410" viewBox="0 0 273 410" fill="none" xmlns="http://www.w3.org/2000/svg">
<path d="M14.6583 396.793C8.93297 390.479 -1.68849 371.458 1.62825 345.885C5.77417 313.92 37.758 297.345 59.0799 312.144C80.4018 326.943 86.3245 356.54 94.6164 373.115C102.908 389.69 131.337 415.144 166.281 407.448C201.226 399.753 207.148 383.178 195.303 354.764C183.457 326.351 138.444 322.799 114.161 314.512C89.8782 306.224 59.6722 292.609 65.5949 258.276C71.5177 223.943 105.277 229.862 119.492 246.437C133.706 263.012 174.573 274.259 189.972 253.54C205.372 232.822 191.749 212.104 176.942 213.287C162.135 214.471 152.067 228.086 158.582 242.293C165.097 256.5 200.633 270.115 224.917 238.741C249.2 207.368 229.655 179.546 211.887 158.236C194.118 136.925 171.612 105.552 188.788 58.7875C205.964 12.0231 250.977 1.95987 273.483 1.36792" stroke="#FFC9C9" stroke-width="2"/>
</svg>
